<svg xmlns="http://www.w3.org/2000/svg" width="17" height="17" fill="none"><g clip-path="url(#clip0)" fill="#efbb53"><path d="M16.973 8.631a.354.354 0 00-.077-.386L10.52 1.87a.354.354 0 00-.5.501l5.77 5.77H.354a.354.354 0 000 .71h15.437l-5.77 5.77a.354.354 0 00.492.509l.009-.009 6.375-6.375a.357.357 0 00.076-.115z"/><path d="M10.27 15.225a.354.354 0 01-.25-.605l6.125-6.124-6.125-6.124a.354.354 0 01.5-.501l6.376 6.375a.354.354 0 010 .5l-6.375 6.376a.354.354 0 01-.25.103z"/><path d="M16.646 8.85H.354a.354.354 0 110-.708h16.292a.354.354 0 110 .708z"/></g><defs id="defs13"><clipPath id="clip0"><path fill="#fff" id="rect10" d="M0 0h17v17H0z"/></clipPath></defs></svg>