<svg xmlns="http://www.w3.org/2000/svg" width="32" height="32"><path class="blueprint_een" d="M16 0C13.833 0 3 8.533 3 19.2 3 26.269 8.82 32 16 32s13-5.731 13-12.8C29 8.533 18.167 0 16 0zm0 30C9.935 30 5 25.155 5 19.2c0-9.083 8.899-16.391 11-17.164 2.102.773 11 8.08 11 17.164C27 25.155 22.065 30 16 30zm-7.671-7.671c-.29.29-.429.69-.428 1.138 0 .76.399 1.66 1.136 2.397 1.172 1.172 2.754 1.488 3.536.707.29-.29.428-.69.428-1.138 0-.76-.399-1.66-1.136-2.397-1.172-1.172-2.755-1.488-3.536-.707zm3.535 3.535c-.288.288-1.258.156-2.121-.707-.621-.621-.843-1.28-.843-1.69 0-.135.023-.319.136-.431.13-.13.398-.169.718-.105.469.094.981.39 1.403.812.621.621.843 1.28.843 1.69 0 .135-.024.319-.136.431z" fill="#71dcff"/></svg>