<?xml version="1.0" encoding="UTF-8" standalone="no"?>
<svg
   xmlns:dc="http://purl.org/dc/elements/1.1/"
   xmlns:cc="http://creativecommons.org/ns#"
   xmlns:rdf="http://www.w3.org/1999/02/22-rdf-syntax-ns#"
   xmlns:svg="http://www.w3.org/2000/svg"
   xmlns="http://www.w3.org/2000/svg"
   xmlns:sodipodi="http://sodipodi.sourceforge.net/DTD/sodipodi-0.dtd"
   xmlns:inkscape="http://www.inkscape.org/namespaces/inkscape"
   height="24"
   viewBox="0 0 24 24"
   width="24"
   version="1.1"
   id="svg6"
   sodipodi:docname="hearing-24px.svg"
   inkscape:version="1.0.2 (1.0.2+r75+1)">
  <metadata
     id="metadata12">
    <rdf:RDF>
      <cc:Work
         rdf:about="">
        <dc:format>image/svg+xml</dc:format>
        <dc:type
           rdf:resource="http://purl.org/dc/dcmitype/StillImage" />
      </cc:Work>
    </rdf:RDF>
  </metadata>
  <defs
     id="defs10" />
  <sodipodi:namedview
     pagecolor="#ffffff"
     bordercolor="#666666"
     borderopacity="1"
     objecttolerance="10"
     gridtolerance="10"
     guidetolerance="10"
     inkscape:pageopacity="0"
     inkscape:pageshadow="2"
     inkscape:window-width="1920"
     inkscape:window-height="1027"
     id="namedview8"
     showgrid="false"
     inkscape:zoom="29.791667"
     inkscape:cx="12"
     inkscape:cy="12"
     inkscape:window-x="1920"
     inkscape:window-y="24"
     inkscape:window-maximized="1"
     inkscape:current-layer="svg6"
     inkscape:document-rotation="0" />
  <path
     d="M0 0h24v24H0V0z"
     fill="none"
     id="path2" />
  <path
     d="m 7,20 c 0.29,0 0.56,-0.06 0.76,-0.15 0.71,-0.37 1.21,-0.88 1.71,-2.38 0.51,-1.56 1.47,-2.29 2.39,-3 0.79,-0.61 1.61,-1.24 2.32,-2.53 C 14.71,10.98 15,9.93 15,9 15,6.2 12.8,4 10,4 7.2,4 5,6.2 5,9 H 3 c 0,-3.93 3.07,-7 7,-7 3.93,0 7,3.07 7,7 0,1.26 -0.38,2.65 -1.07,3.9 -0.91,1.65 -1.98,2.48 -2.85,3.15 -0.81,0.62 -1.39,1.07 -1.71,2.05 C 10.77,19.92 10,20.94 8.64,21.65 8.13,21.88 7.57,22 7,22 4.79,22 3,20.21 3,18 h 2 c 0,1.1 0.9,2 2,2 z M 16.36,2.64 17.78,1.22 C 19.77,3.21 21,5.96 21,9 c 0,3.04 -1.23,5.79 -3.22,7.78 L 16.37,15.37 C 17.99,13.74 19,11.49 19,9 19,6.51 17.99,4.26 16.36,2.64 Z M 12.5,9 c 0,1.38 -1.12,2.5 -2.5,2.5 C 8.62,11.5 7.5,10.38 7.5,9 7.5,7.62 8.62,6.5 10,6.5 c 1.38,0 2.5,1.12 2.5,2.5 z"
     id="path4"
     style="fill:#ffffff;fill-opacity:1" />
</svg>
