<svg width="60" height="62" viewBox="0 0 60 62" fill="none" xmlns="http://www.w3.org/2000/svg">
<g clip-path="url(#clip0)">
<path d="M45.563 30.6007L23.563 15.3262C23.256 15.1144 22.86 15.091 22.532 15.2671C22.205 15.4433 22 15.7895 22 16.1673V46.7163C22 47.0941 22.205 47.4403 22.533 47.6165C22.679 47.6959 22.84 47.7346 23 47.7346C23.197 47.7346 23.394 47.6746 23.563 47.5574L45.563 32.2829C45.836 32.0935 46 31.7789 46 31.4418C46 31.1048 45.836 30.7901 45.563 30.6007ZM24 44.7887V18.095L43.225 31.4418L24 44.7887Z" fill="white"/>
<path d="M30 0.892822C13.458 0.892822 0 14.5971 0 31.4418C0 48.2866 13.458 61.9909 30 61.9909C46.542 61.9909 60 48.2866 60 31.4418C60 14.5971 46.542 0.892822 30 0.892822ZM30 59.9543C14.561 59.9543 2 47.1634 2 31.4418C2 15.7203 14.561 2.92942 30 2.92942C45.439 2.92942 58 15.7203 58 31.4418C58 47.1634 45.439 59.9543 30 59.9543Z" fill="white"/>
<ellipse cx="30" cy="31.4418" rx="30" ry="30.549" fill="white"/>
<path d="M41 31.4418L24.5 41.1424L24.5 21.7412L41 31.4418Z" fill="#272727"/>
</g>
<defs>
<clipPath id="clip0">
<rect width="60" height="61.098" fill="white" transform="translate(0 0.892822)"/>
</clipPath>
</defs>
</svg>
