<svg width="11" height="11" viewBox="0 0 11 11" fill="none" xmlns="http://www.w3.org/2000/svg">
<path d="M4.89229 5.50002L0.125834 0.733546C-0.0419807 0.565732 -0.0419807 0.293654 0.125834 0.125861C0.293648 -0.0419321 0.565726 -0.0419536 0.733519 0.125861L5.5 4.89234L10.2665 0.125861C10.4343 -0.0419536 10.7063 -0.0419536 10.8741 0.125861C11.0419 0.293675 11.042 0.565753 10.8741 0.733546L6.10768 5.5L10.8741 10.2665C11.042 10.4343 11.042 10.7064 10.8741 10.8742C10.7902 10.9581 10.6803 11 10.5703 11C10.4603 11 10.3504 10.9581 10.2664 10.8742L5.5 6.10771L0.733541 10.8742C0.649644 10.9581 0.539665 11 0.429687 11C0.319709 11 0.209751 10.9581 0.125834 10.8742C-0.0419807 10.7064 -0.0419807 10.4343 0.125834 10.2665L4.89229 5.50002Z" fill="#EFBB53"/>
</svg>
