<svg width="26" height="26" viewBox="0 0 26 26" fill="none" xmlns="http://www.w3.org/2000/svg">
<ellipse cx="13" cy="12.5201" rx="10.8672" ry="10.4659" fill="white"/>
<path d="M13 25.0399C20.176 25.0399 26 19.431 26 12.52C26 5.60894 20.176 0 13 0C5.824 0 0 5.60894 0 12.52C0 19.431 5.824 25.0399 13 25.0399ZM18.278 18.421V18.4221C17.4037 18.4221 14.6423 15.4715 6.88133 17.0031C6.67658 17.0543 6.409 17.1346 6.25733 17.1346C5.26608 17.1346 5.0765 15.7063 6.1425 15.4882C10.4358 14.5753 14.8232 14.6557 18.5651 16.8112C19.4578 17.36 19.0786 18.421 18.278 18.421ZM19.6896 15.1105C19.5672 15.0792 19.6029 15.1825 19.0428 14.8987C15.7657 13.0312 10.8821 12.2779 6.53575 13.4141C6.28442 13.4798 6.14792 13.5456 5.91175 13.5456C4.7515 13.5456 4.44383 11.8647 5.70808 11.5215C10.8171 10.1391 16.2977 10.9456 20.1132 13.1313C20.5378 13.3734 20.7058 13.6874 20.7058 14.1256C20.7003 14.6703 20.2605 15.1105 19.6896 15.1105ZM4.927 7.30122C9.82692 5.91985 17.2423 6.35597 21.853 8.9476C23.0349 9.60385 22.5702 11.2638 21.3135 11.2638L21.3124 11.2627C21.0394 11.2627 20.8715 11.197 20.6353 11.0656C16.9054 8.92047 10.231 8.40611 5.91283 9.56734C5.72325 9.61741 5.48708 9.69775 5.23575 9.69775C4.5435 9.69775 4.01483 9.17713 4.01483 8.50627C4.01483 7.8208 4.45575 7.43268 4.927 7.30122Z" fill="#232121"/>
</svg>
