<svg width="26" height="18" viewBox="0 0 26 18" fill="none" xmlns="http://www.w3.org/2000/svg">
<path d="M23.8333 0.25H2.16668C0.972258 0.25 0 1.2217 0 2.41668V15.4167C0 16.6116 0.972258 17.5834 2.16668 17.5834H23.8334C25.0278 17.5834 26 16.6117 26 15.4167V2.41668C26 1.2217 25.0277 0.25 23.8333 0.25ZM24.9167 15.4167C24.9167 16.0139 24.4311 16.5 23.8334 16.5H2.16668C1.56894 16.5 1.08337 16.0139 1.08337 15.4167V2.41668C1.08337 1.8195 1.56899 1.33337 2.16668 1.33337H23.8334C24.4311 1.33337 24.9167 1.8195 24.9167 2.41668V15.4167Z" fill="white"/>
<path d="M17.0646 8.44855L10.5646 4.65687C10.3975 4.56058 10.1912 4.55901 10.0219 4.65529C9.85364 4.75208 9.75 4.93088 9.75 5.12502V12.7083C9.75 12.9025 9.8537 13.0813 10.0219 13.1781C10.1055 13.2262 10.1986 13.25 10.2917 13.25C10.3858 13.25 10.48 13.2251 10.5646 13.1765L17.0646 9.3848C17.2307 9.28746 17.3334 9.10921 17.3334 8.91665C17.3333 8.72414 17.2307 8.5459 17.0646 8.44855ZM10.8333 11.7652V6.06818L15.7168 8.9167L10.8333 11.7652Z" fill="white"/>
</svg>
