<svg width="26" height="26" viewBox="0 0 26 26" fill="none" xmlns="http://www.w3.org/2000/svg">
<path d="M6.83008 13.9593H7.86077V19.5378H8.83587V13.9593H9.88571V13.0457H6.83008V13.9593Z" fill="white"/>
<path d="M15.0753 14.6413C14.753 14.6413 14.4521 14.8174 14.1694 15.1658V13.0454H13.293V19.5378H14.1694V19.0692C14.4628 19.4312 14.7633 19.6046 15.0753 19.6046C15.424 19.6046 15.6586 19.4211 15.7757 19.0609C15.8344 18.8558 15.8645 18.5337 15.8645 18.0861V16.1598C15.8645 15.7018 15.8344 15.3821 15.7757 15.1877C15.6589 14.8248 15.4238 14.6413 15.0753 14.6413ZM14.9876 18.1547C14.9876 18.592 14.8594 18.8074 14.6061 18.8074C14.4622 18.8074 14.3157 18.7385 14.1691 18.5917V15.6435C14.3157 15.4986 14.4622 15.43 14.6061 15.43C14.8591 15.43 14.9876 15.6539 14.9876 16.0901V18.1547Z" fill="white"/>
<path d="M11.6558 18.3974C11.4613 18.6721 11.2775 18.8075 11.1015 18.8075C10.9844 18.8075 10.9177 18.7386 10.8964 18.6024C10.8884 18.5742 10.8884 18.4673 10.8884 18.262V14.7004H10.0117V18.525C10.0117 18.8668 10.0412 19.0977 10.0891 19.2445C10.1772 19.4898 10.3719 19.6047 10.6538 19.6047C10.9764 19.6047 11.3073 19.41 11.6558 19.0105V19.5382H12.533V14.7004H11.6558V18.3974Z" fill="white"/>
<path d="M12.4092 10.2314C12.6946 10.2314 12.8316 10.0051 12.8316 9.5529V7.49658C12.8316 7.04414 12.6946 6.81885 12.4092 6.81885C12.1236 6.81885 11.9863 7.0444 11.9863 7.49658V9.5529C11.9863 10.0053 12.1236 10.2314 12.4092 10.2314Z" fill="white"/>
<path d="M13 0C5.82028 0 0 5.82028 0 13C0 20.1797 5.82028 26 13 26C20.1797 26 26 20.1797 26 13C26 5.82028 20.1797 0 13 0ZM14.4459 6.08041H15.3292V9.67971C15.3292 9.88745 15.3292 9.99517 15.3399 10.0242C15.3593 10.1614 15.429 10.2316 15.5476 10.2316C15.7247 10.2316 15.9107 10.0944 16.1072 9.81696V6.08041H16.993V10.9689H16.1072V10.4359C15.7545 10.8402 15.4183 11.0362 15.0952 11.0362C14.81 11.0362 14.6132 10.9205 14.5244 10.6732C14.4754 10.525 14.4459 10.2912 14.4459 9.94623V6.08041ZM11.1003 7.67446C11.1003 7.1518 11.1892 6.76984 11.3775 6.52274C11.6225 6.1884 11.9674 6.02136 12.409 6.02136C12.8526 6.02136 13.1974 6.1884 13.4423 6.52274C13.628 6.76958 13.7168 7.1518 13.7168 7.67446V9.38633C13.7168 9.90607 13.628 10.2915 13.4423 10.5359C13.1974 10.8695 12.8526 11.0362 12.409 11.0362C11.9674 11.0362 11.6225 10.8695 11.3775 10.5359C11.1892 10.2915 11.1003 9.9058 11.1003 9.38633V7.67446ZM8.73148 4.40896L9.42889 6.98502L10.0989 4.40896H11.0924L9.91059 8.31229V10.9692H8.92857V8.31229C8.83947 7.84149 8.64291 7.1518 8.32771 6.23681C8.12078 5.62797 7.90506 5.01727 7.69813 4.40896H8.73148ZM19.9983 19.9651C19.8206 20.7362 19.19 21.3054 18.4306 21.3902C16.6318 21.591 14.8122 21.5921 12.9992 21.591C11.187 21.5921 9.36638 21.591 7.56806 21.3902C6.80867 21.3054 6.17776 20.7364 6.00061 19.9651C5.74766 18.8668 5.74766 17.6675 5.74766 16.5365C5.74766 15.4056 5.75085 14.2065 6.00354 13.108C6.18095 12.3366 6.81134 11.7674 7.57072 11.6828C9.36931 11.482 11.1897 11.481 13.0024 11.482C14.8145 11.481 16.6349 11.482 18.4335 11.6828C19.1929 11.7677 19.8238 12.3366 20.0018 13.108C20.2539 14.2065 20.2523 15.4056 20.2523 16.5365C20.2523 17.6675 20.2513 18.8668 19.9983 19.9651Z" fill="white"/>
<path d="M17.8655 14.6414C17.4171 14.6414 17.0689 14.806 16.8157 15.1372C16.6298 15.3819 16.5449 15.7601 16.5449 16.2769V17.9715C16.5449 18.4856 16.6399 18.8665 16.8266 19.1088C17.0796 19.4392 17.4288 19.6044 17.8873 19.6044C18.3451 19.6044 18.7045 19.4312 18.947 19.0798C19.0534 18.9245 19.1226 18.7487 19.1518 18.5545C19.1601 18.4667 19.1705 18.2723 19.1705 17.9896V17.8622H18.2765C18.2765 18.2133 18.265 18.4082 18.2573 18.4558C18.2073 18.6902 18.0812 18.8072 17.8655 18.8072C17.5644 18.8072 17.4171 18.5838 17.4171 18.1364V17.2783H19.1705V16.2764C19.1705 15.7596 19.0829 15.3813 18.8992 15.1366C18.6542 14.8063 18.3055 14.6414 17.8655 14.6414ZM18.2943 16.549H17.4176V16.1013C17.4176 15.654 17.5647 15.4303 17.8576 15.4303C18.1475 15.4303 18.2943 15.6542 18.2943 16.1013V16.549Z" fill="white"/>
</svg>
