<svg width="183" height="277" viewBox="0 0 183 277" fill="none" xmlns="http://www.w3.org/2000/svg">
<path d="M101.969 250.314L110.477 259.766L111.086 260.446L153.531 258.975L160.252 249.309" stroke="white" stroke-width="2.5" stroke-linecap="round" stroke-linejoin="round"/>
<path d="M174.024 177.729L182.715 46.5555L181.909 45.9808L127.318 6.25973L126.376 7.1418L126.875 6.72957L70.4355 54.0652L83.139 130.106" stroke="white" stroke-width="2.5" stroke-linecap="round" stroke-linejoin="round"/>
<path d="M110.478 259.778L109.36 238.151" stroke="white" stroke-width="2.5" stroke-linecap="round" stroke-linejoin="round"/>
<path d="M108.926 229.69L100.288 62.4698L150.312 63.343" stroke="white" stroke-width="2.5" stroke-linecap="round" stroke-linejoin="round"/>
<path d="M152.92 258.302L152.695 241.484" stroke="white" stroke-width="2.5" stroke-linecap="round" stroke-linejoin="round"/>
<path d="M153.163 225.814L152.759 211.018L152.648 202.794L152.535 194.27L151.167 92.3173L150.783 63.8687L182.378 46.5124L182.571 46.4064" stroke="white" stroke-width="2.5" stroke-linecap="round" stroke-linejoin="round"/>
<path d="M70.4365 54.0626L100.297 62.4682L127.305 6.74886L150.316 63.339" stroke="white" stroke-width="3" stroke-linecap="round" stroke-linejoin="round"/>
<path d="M174.499 66.2576L150.991 78.7344" stroke="white" stroke-width="1.5" stroke-linecap="round" stroke-linejoin="round"/>
<path d="M174.596 78.1655L151.3 91.4435" stroke="white" stroke-width="1.5" stroke-linecap="round" stroke-linejoin="round"/>
<path d="M173.236 92.6712L151.346 105.015" stroke="white" stroke-width="1.5" stroke-linecap="round" stroke-linejoin="round"/>
<path d="M171.693 105.519L151.512 116.76" stroke="white" stroke-width="1.5" stroke-linecap="round" stroke-linejoin="round"/>
<path d="M167.145 122.876L151.919 130.877" stroke="white" stroke-width="1.5" stroke-linecap="round" stroke-linejoin="round"/>
<path d="M166.163 135.48L152.087 142.724" stroke="white" stroke-width="1.5" stroke-linecap="round" stroke-linejoin="round"/>
<path d="M165.265 146.713L151.964 153.117" stroke="white" stroke-width="1.5" stroke-linecap="round" stroke-linejoin="round"/>
<path d="M164.729 156.315L152.326 163.601" stroke="white" stroke-width="1.5" stroke-linecap="round" stroke-linejoin="round"/>
<path d="M164.433 166.478L152.252 173.294" stroke="white" stroke-width="1.5" stroke-linecap="round" stroke-linejoin="round"/>
<path d="M163.612 176.34L152.61 182.121" stroke="white" stroke-width="1.5" stroke-linecap="round" stroke-linejoin="round"/>
<path d="M163.031 186.761L152.752 193.295" stroke="white" stroke-width="1.5" stroke-linecap="round" stroke-linejoin="round"/>
<path d="M162.497 196.363L153.117 201.721" stroke="white" stroke-width="1.5" stroke-linecap="round" stroke-linejoin="round"/>
<path d="M160.006 205.228L152.957 210.025" stroke="white" stroke-width="1.5" stroke-linecap="round" stroke-linejoin="round"/>
<path d="M110.622 236.198L109.367 238.153L91.5825 265.888L58.4575 266.871L6.66751 154.468L32.7097 103.184L83.3785 131.465L108.93 229.693L108.93 229.696L110.622 236.198Z" stroke="white" stroke-width="2.5" stroke-linecap="round" stroke-linejoin="round"/>
<path d="M7.14236 155.178L52.0373 158.666L83.1919 131.945" stroke="white" stroke-width="2.5" stroke-linecap="round" stroke-linejoin="round"/>
<path d="M32.8486 103.608L51.8636 157.692L55.1343 166.505L91.5238 265.426" stroke="white" stroke-width="2.5" stroke-linecap="round" stroke-linejoin="round"/>
<path d="M75.1665 151.327L56.3056 168.209" stroke="white" stroke-width="1.5" stroke-linecap="round" stroke-linejoin="round"/>
<path d="M76.7289 161.192L60.0843 176.969" stroke="white" stroke-width="1.5" stroke-linecap="round" stroke-linejoin="round"/>
<path d="M78.4474 172.811L62.936 189.879" stroke="white" stroke-width="1.5" stroke-linecap="round" stroke-linejoin="round"/>
<path d="M82.6279 188.441L68.8082 203.447" stroke="white" stroke-width="1.5" stroke-linecap="round" stroke-linejoin="round"/>
<path d="M85.8841 200.132L72.7927 213.973" stroke="white" stroke-width="1.5" stroke-linecap="round" stroke-linejoin="round"/>
<path d="M90.5834 212.091L77.6365 228.075" stroke="white" stroke-width="1.5" stroke-linecap="round" stroke-linejoin="round"/>
<path d="M93.6319 221.865L80.5409 235.702" stroke="white" stroke-width="1.5" stroke-linecap="round" stroke-linejoin="round"/>
<path d="M96.4837 230.992L84.3839 247.131" stroke="white" stroke-width="1.5" stroke-linecap="round" stroke-linejoin="round"/>
<path d="M230.122 186.788L189.131 250.665L164.72 253.922L160.253 249.303L159.984 249.023L152.695 241.48L148.699 237.351L152.517 228.358L172.927 180.291L174.013 177.735L182.345 158.109L220.956 147.498L230.122 186.788Z" stroke="white" stroke-width="2.5" stroke-linecap="round" stroke-linejoin="round"/>
<path d="M182.202 158.684L201.432 183.401L229.788 186.915" stroke="white" stroke-width="2.5" stroke-linecap="round" stroke-linejoin="round"/>
<path d="M220.807 147.769L201.852 182.858L198.843 188.665L164.932 253.678" stroke="white" stroke-width="2.5" stroke-linecap="round" stroke-linejoin="round"/>
<path d="M196.474 221.356L182.503 220.968" stroke="white" stroke-width="1.5" stroke-linecap="round" stroke-linejoin="round"/>
<path d="M193.118 229.885L177.938 229.457" stroke="white" stroke-width="1.5" stroke-linecap="round" stroke-linejoin="round"/>
<path d="M189.836 237.433L173.329 237.584" stroke="white" stroke-width="1.5" stroke-linecap="round" stroke-linejoin="round"/>
<path d="M185.148 244.353L169.995 244.611" stroke="white" stroke-width="1.5" stroke-linecap="round" stroke-linejoin="round"/>
</svg>
