<svg width="206" height="236" viewBox="0 0 206 236" fill="none" xmlns="http://www.w3.org/2000/svg">
<path d="M117.721 233.668C181.631 233.668 233.441 181.808 233.441 117.834C233.441 53.8608 181.631 2 117.721 2C53.8099 2 2 53.8608 2 117.834C2 181.808 53.8099 233.668 117.721 233.668Z" stroke="white" stroke-width="3" stroke-linecap="round" stroke-linejoin="round"/>
<path d="M49.3469 196.003C53.0492 196.003 56.0505 192.998 56.0505 189.292C56.0505 185.586 53.0492 182.582 49.3469 182.582C45.6445 182.582 42.6432 185.586 42.6432 189.292C42.6432 192.998 45.6445 196.003 49.3469 196.003Z" fill="white"/>
<path d="M200.682 165.509C203.498 165.509 205.78 163.227 205.78 160.411C205.78 157.596 203.498 155.314 200.682 155.314C197.867 155.314 195.584 157.596 195.584 160.411C195.584 163.227 197.867 165.509 200.682 165.509Z" fill="white"/>
<path d="M115.145 23.1683C118.49 23.1683 121.201 20.4572 121.201 17.1128C121.201 13.7684 118.49 11.0573 115.145 11.0573C111.801 11.0573 109.09 13.7684 109.09 17.1128C109.09 20.4572 111.801 23.1683 115.145 23.1683Z" fill="white"/>
<path d="M62.2568 114.462C77.3984 114.462 89.6731 102.175 89.6731 87.0186C89.6731 71.8621 77.3984 59.5754 62.2568 59.5754C47.1153 59.5754 34.8406 71.8621 34.8406 87.0186C34.8406 102.175 47.1153 114.462 62.2568 114.462Z" stroke="white" stroke-width="3" stroke-linecap="round" stroke-linejoin="round"/>
<path d="M136.998 164.724C142.725 164.724 147.369 160.077 147.369 154.343C147.369 148.61 142.725 143.962 136.998 143.962C131.27 143.962 126.627 148.61 126.627 154.343C126.627 160.077 131.27 164.724 136.998 164.724Z" stroke="white" stroke-width="3" stroke-linecap="round" stroke-linejoin="round"/>
<path d="M112.225 186.821C116.242 186.821 119.498 183.562 119.498 179.541C119.498 175.52 116.242 172.26 112.225 172.26C108.208 172.26 104.951 175.52 104.951 179.541C104.951 183.562 108.208 186.821 112.225 186.821Z" stroke="white" stroke-width="3" stroke-linecap="round" stroke-linejoin="round"/>
<path d="M156.278 87.0188C164.815 87.0188 171.735 80.0916 171.735 71.5465C171.735 63.0014 164.815 56.0742 156.278 56.0742C147.742 56.0742 140.821 63.0014 140.821 71.5465C140.821 80.0916 147.742 87.0188 156.278 87.0188Z" stroke="white" stroke-width="3" stroke-linecap="round" stroke-linejoin="round"/>
</svg>
