<svg width="278" height="192" viewBox="0 0 278 192" fill="none" xmlns="http://www.w3.org/2000/svg">
<path d="M2 176.302C3.20923 171.049 11.6867 153.884 12.4907 149.641C13.2947 145.398 15.5202 133.081 15.919 126.212C16.3178 119.342 16.7294 111.468 16.9288 103.793C17.1282 96.1186 21.1676 77.3378 22.782 71.4789C24.3965 65.6199 26.4161 57.9582 29.8573 50.4768C33.2985 42.9954 39.1259 28.8631 41.345 24.0215C43.564 19.1798 46.3877 11.6984 49.4172 7.66151C52.4467 3.62463 54.222 2.05366 56.4925 2.00216C58.9303 1.95065 60.3517 2.8134 61.3294 5.44026C62.5573 8.29987 63.1898 11.3801 63.1883 14.4926C63.1883 17.9629 63.7414 20.989 61.5224 27.0475C59.8376 31.6406 57.6022 36.012 54.8652 40.0659C53.0449 42.8023 51.2053 47.2319 50.1633 48.7384" stroke="white" stroke-width="3" stroke-linecap="round" stroke-linejoin="round"/>
<path d="M33.1318 67.9959C35.0615 63.6371 37.5121 58.4541 40.5351 55.692C43.5582 52.9299 43.7962 52.6338 48.3308 49.8974C52.8654 47.1611 61.9153 41.8172 63.1889 40.7034C65.4594 38.701 68.624 35.3659 68.624 35.3659C68.624 35.3659 79.4749 23.7767 82.9032 21.3687C85.8987 19.4176 89.089 17.7842 92.4227 16.4948" stroke="white" stroke-width="3" stroke-linecap="round" stroke-linejoin="round"/>
<path d="M69.6904 34.1806C70.726 28.7788 72.3533 22.1988 74.09 18.9731C74.8747 17.5052 77.3832 12.7086 80.3419 10.2363C83.3007 7.76393 85.3525 5.78735 89.5977 4.44173C93.8429 3.09612 96.48 2.62611 98.9499 2.62611C101.42 2.62611 103.896 3.45023 105.048 4.44173C106.307 5.43006 107.263 6.75311 107.807 8.25969C108.45 10.1912 108.405 10.732 107.807 13.037C107.447 14.4405 106.939 16.5201 106.263 18.677C105.835 20.0673 105.328 21.4323 104.745 22.7653C103.259 26.0618 102.404 27.6714 100.294 32.5774C98.8599 35.9125 89.6234 60.6745 89.6234 60.6745" stroke="white" stroke-width="3" stroke-linecap="round" stroke-linejoin="round"/>
<path d="M106.559 18.356C108.457 18.9998 111.094 19.4763 112.933 20.6223C114.265 21.4464 115.918 22.1032 116.902 23.7514C117.886 25.3996 117.983 25.8954 118.266 28.3677C118.44 31.1529 118.208 33.9486 117.577 36.6668C117.391 37.4652 112.979 51.5846 112.432 53.6642C111.518 56.9671 109.139 64.4421 108.573 66.2642C108.007 68.0863 106.315 73.4173 105.871 74.4861" stroke="white" stroke-width="3" stroke-linecap="round" stroke-linejoin="round"/>
<path d="M116.285 40.9544C116.626 42.0683 118.472 49.0281 118.858 50.2707C119.501 52.2023 121.431 57.7199 121.566 58.8531C122.016 62.3234 120.196 71.9809 119.52 74.4919C118.845 77.0028 117.449 81.0075 116.89 83.5506C116.33 86.0938 114.96 92.8991 114.96 92.8991" stroke="white" stroke-width="3" stroke-linecap="round" stroke-linejoin="round"/>
<path d="M117.353 81.8064C133.041 80.0294 136.392 78.819 138.534 77.5442C142.464 75.207 146.014 73.2047 148.497 68.8974C150.98 64.5901 155.81 52.9109 156.691 50.754C157.572 48.5971 159.515 42.8992 160.956 41.2509C162.827 39.1134 164.3 38.2056 166.101 37.6326C166.732 37.4254 167.377 37.2661 168.031 37.1561C169.063 37.0031 170.116 37.1675 171.052 37.6274C171.989 38.0873 172.763 38.8211 173.273 39.7315V39.7701C174.004 41.1428 174.487 42.6335 174.701 44.174C174.849 45.79 175.074 50.7669 174.232 53.6577C173.37 56.6451 169.002 66.7921 168.173 68.466C167.343 70.14 165.523 75.9732 164.661 77.7824C163.459 79.9949 161.942 82.0206 160.158 83.7959C158.672 85.2316 151.07 90.6463 148.246 92.0563C145.422 93.4663 138.302 98.4625 135.633 100.961C132.963 103.459 119.295 115.769 117.829 117.224C116.362 118.679 108.708 125.942 105.556 128.053C102.405 130.165 89.5148 139.823 87.1092 141.542C84.7036 143.261 78.1686 150.317 76.2776 152.899C74.3866 155.481 69.9163 161.675 68.8871 163.741C67.858 165.808 63.928 173.895 63.2269 177.333C62.5258 180.771 61.7861 184.531 61.7861 184.531" stroke="white" stroke-width="3" stroke-linecap="round" stroke-linejoin="round"/>
<path d="M148.497 68.8973C148.497 68.8973 147.011 65.3111 146.568 64.1007C146.124 62.8903 145.204 59.9415 144.677 58.2547C144.149 56.5679 143.963 55.3832 143.506 53.6642C143.084 52.2056 142.806 50.709 142.676 49.1959C142.458 47.3546 142.072 44.2449 141.994 43.0924C141.737 39.1779 142.194 36.4673 143.512 35.5853C145.539 34.2204 148.478 35.0187 150.015 37.0275C151.147 38.5083 152.093 40.2466 152.884 41.354C153.675 42.4614 154.711 43.7491 155.457 44.7728C156.377 46.0605 157.515 47.728 157.515 47.728" stroke="white" stroke-width="3" stroke-linecap="round" stroke-linejoin="round"/>
<path d="M169.277 66.0071C172.706 69.2263 179.196 78.755 180.72 80.8732C184.618 86.2814 188.574 92.005 193.655 94.4838C195.379 95.3272 194.941 95.2049 194.941 95.2049" stroke="white" stroke-width="3" stroke-linecap="round" stroke-linejoin="round"/>
<path d="M187.205 89.2942C187.205 89.2942 186.561 82.2119 186.349 80.1967C186.137 78.1815 185.622 74.7692 185.256 72.3934C184.889 70.0177 184.613 68.466 184.342 66.1675C184.227 65.0408 184.085 62.9097 184.793 61.4997C185.236 60.6047 186.883 59.6132 187.533 59.3815C188.182 59.1497 190.44 58.6797 191.694 58.4415C192.949 58.2032 196.917 57.6946 198.088 57.6946C200.016 57.5781 201.949 57.5781 203.877 57.6946C205.583 57.9799 207.265 58.3975 208.906 58.9436C211.26 59.8758 213.554 60.9508 215.776 62.1628C216.831 62.8067 222.407 67.7127 223.109 68.7235C223.81 69.7344 227.611 75.8701 228.068 76.8488C228.524 77.8274 230.184 81.9995 230.943 83.6735C231.702 85.3474 232.519 88.2447 233.387 90.247C234.255 92.2494 235.773 95.3977 236.507 96.9494C237.24 98.501 238.481 100.426 238.687 102.016C238.893 103.607 238.417 106.182 236.957 107.109C235.394 108.107 230.525 107.309 228.524 105.178C224.53 100.941 221.674 95.211 220.844 94.1036C220.015 92.9962 217.873 89.3263 216.902 88.1546C215.93 86.9828 214.329 84.8967 213.1 83.6477C211.892 82.3795 210.563 81.2323 209.132 80.2225C207.877 79.5123 206.537 78.9649 205.144 78.5936C203.214 77.9497 200.583 77.3445 199.477 76.2371C198.371 75.1297 197.264 73.9515 197.194 73.5394" stroke="white" stroke-width="3" stroke-linecap="round" stroke-linejoin="round"/>
<path d="M196.37 57.566C196.138 53.0591 196.113 49.0159 197.592 47.1358C198.641 45.7584 199.953 44.6029 201.451 43.7364C202.703 42.9187 204.08 42.3139 205.529 41.9465C207.459 41.3027 213.003 40.6589 214.708 41.0258C217.28 41.5345 220.702 42.5646 222.188 43.8137C224.718 45.9873 227.117 48.3092 229.373 50.7671C231.305 52.8971 233.075 55.1699 234.666 57.566C236.319 59.9804 238.603 65.4015 239.535 67.2686C240.468 69.1357 242.546 75.4711 243.17 77.2352C243.793 78.9993 245.968 84.1886 246.694 86.3648C247.421 88.541 248.296 90.1506 248.251 91.831C248.206 93.6466 247.312 96.5696 243.89 96.2928C240.468 96.0159 237.985 95.1532 236.114 93.6337C234.974 92.6919 234.044 91.5205 233.386 90.1956" stroke="white" stroke-width="3" stroke-linecap="round" stroke-linejoin="round"/>
<path d="M212.355 40.8451C212.355 40.8451 212.253 37.6967 212.439 35.3145C212.626 32.9323 212.626 30.9106 212.941 29.2044C213.256 27.4983 213.584 25.438 214.227 24.6139C214.87 23.7897 216.002 21.9612 217.565 21.2723C219.437 20.4546 222.447 20.8216 224.036 21.5427C226.52 22.6062 228.9 23.8995 231.144 25.4058C232.211 26.2235 237.987 30.2603 238.753 30.8591C239.518 31.4579 248.24 38.8106 249.764 40.5167C250.954 41.8624 253.251 46.8843 253.881 48.275C254.511 49.6657 258.731 61.2871 259.4 62.7808C260.389 65.4495 261.111 68.2101 261.554 71.022C261.715 72.432 262.288 76.4431 260.545 77.8596C258.364 79.6237 252.003 80.3319 241.248 71.7495" stroke="white" stroke-width="3" stroke-linecap="round" stroke-linejoin="round"/>
<path d="M157.032 86.2811C159 89.4037 178.136 113.696 180.329 116.046C182.523 118.396 199.452 144.709 204.585 148.321C207.344 150.253 207.871 150.517 211.55 152.081C215.23 153.646 222.022 156.549 226.312 158.185C231.02 159.981 232.712 159.897 237.928 162.421C241.871 164.353 246.85 169.787 249.037 173.547C251.223 177.307 259.682 189.997 259.682 189.997" stroke="white" stroke-width="3" stroke-linecap="round" stroke-linejoin="round"/>
<path d="M256.117 120.147C259.449 121.557 267.534 126.09 269.824 127.815C273.934 130.912 278.668 137.595 280.064 140.009C281.993 143.338 283.003 148.856 284.161 151.161C284.789 152.448 285.52 153.681 286.348 154.85" stroke="white" stroke-width="3" stroke-linecap="round" stroke-linejoin="round"/>
<path d="M263.302 94.0322C263.502 91.0126 262.865 80.5824 262.865 78.4448C262.865 76.3073 261.842 59.091 261.578 57.5587C261.315 56.0264 260.807 51.9187 260.202 49.8327C259.597 47.7466 257.391 39.7759 257.024 37.5997C256.491 34.3805 256.105 31.9211 256.021 30.8974C255.857 28.7535 255.877 26.5995 256.079 24.459C256.175 23.0103 257.777 18.4777 259.166 16.7329C260.617 14.7527 262.319 12.9694 264.228 11.4277C266.28 9.76015 267.772 9.08412 269.04 8.85234C269.762 8.70259 270.507 8.70364 271.228 8.85541C271.95 9.00719 272.633 9.30643 273.233 9.7344C274.856 10.9793 276.109 12.6446 276.855 14.5503C277.614 16.8681 278.18 23.4803 278.141 26.6158C278.141 29.0174 277.041 37.3036 278.141 40.4777C279.241 43.6518 284.11 56.7668 285.216 58.8335C286.323 60.9002 292.877 75.0711 293.906 77.6465C294.935 80.2218 300.113 95.5774 300.981 98.5583C301.85 101.539 303.091 109.504 303.477 111.532C303.863 113.56 304.725 125.754 304.918 128.349C305.111 130.943 304.886 146.936 305.831 150.812C306.925 155.319 307.806 160.045 309.427 164.198C311.16 167.888 313.093 171.482 315.216 174.963" stroke="white" stroke-width="3" stroke-linecap="round" stroke-linejoin="round"/>
</svg>
