<svg width="271" height="200" viewBox="0 0 271 200" fill="none" xmlns="http://www.w3.org/2000/svg">
<path d="M94.2868 5.99071C89.6871 11.3599 63.8877 44.0751 61.5833 46.6074C57.3297 51.2764 52.8666 60.4054 63.956 64.2879C70.9011 66.7202 75.7969 64.3789 80.6243 68.566C85.4517 72.7532 137.52 117.111 143.649 123.576C149.779 130.041 181.709 171.181 190.102 178.009C194.911 181.914 227.829 206.469 256.543 192.939C285.257 179.409 294.033 158.674 298.637 148.385C305.345 133.383 303.938 107.36 283.904 90.8838C263.87 74.408 190.758 51.0809 173.334 45.2844C157.467 40.0061 130.452 29.5042 121.976 25.5353C111.552 20.6753 114.753 18.2021 109.393 8.40025C104.78 -0.105883 98.8228 0.689719 94.2868 5.99071Z" stroke="white" stroke-width="3" stroke-linecap="round" stroke-linejoin="round"/>
<path d="M109.266 93.5795C103.692 95.3753 100.098 103.063 99.7341 107.4C99.1967 113.865 102.79 118.921 107.107 125.89C110.45 131.287 118.384 140.161 128.325 150.19C137.552 159.501 142.307 162.665 149.798 164.015C156.543 165.229 160.273 164.775 164.663 162.679C166.94 161.592 169.122 159.274 170.415 158.014" stroke="white" stroke-width="3" stroke-linecap="round" stroke-linejoin="round"/>
<path d="M119.488 101.562C116.801 102.239 112.597 105.653 113.198 109.29C114.428 116.665 124.793 128.958 129.88 134.027C135.546 139.674 144.162 149.198 149.818 150.135C154.008 150.826 154.787 150.771 158.321 148.557C159.55 147.845 160.643 146.922 161.55 145.829" stroke="white" stroke-width="3" stroke-linecap="round" stroke-linejoin="round"/>
<path d="M151.498 36.6186C152.95 30.1356 156.197 24.3028 159.977 22.1296C165.606 18.8972 174.159 20.1156 179.879 20.9294C186.169 21.8387 197.609 25.0529 210.93 29.7719C223.294 34.15 228.185 37.1006 232.594 43.2971C236.561 48.8709 237.731 52.4352 237.704 57.2951C237.704 59.8229 236.032 64.1555 235.427 65.8558" stroke="white" stroke-width="3" stroke-linecap="round" stroke-linejoin="round"/>
<path d="M163.202 41.7379C162.747 39.0101 164.623 33.6955 168.212 32.7817C175.466 30.9269 190.454 35.5095 197.153 38.1282C203.215 40.4786 214.259 45.484 219.232 48.5255C220.41 49.273 221.435 50.2372 222.252 51.3669C222.926 52.3171 223.094 54.0628 222.967 54.9266C222.411 58.7682 221.823 59.8139 221.263 61.0232" stroke="white" stroke-width="3" stroke-linecap="round" stroke-linejoin="round"/>
<path d="M86.2861 15.3142C79.9103 13.4957 68.6569 11.7954 62.9505 11.4589C57.2441 11.1225 50.5267 11.7954 44.9843 13.6366C42.4435 14.5672 39.9823 15.7014 37.6247 17.0281C28.179 22.1083 20.232 29.5712 14.576 38.673C14.025 39.5823 13.5195 40.4506 13.0869 41.2917C10.0629 47.1564 6.03698 59.1859 5.03051 64.2505C3.72346 70.7835 1.72418 90.5553 1.66953 96.7655C1.60121 104.694 1.33705 115.701 1.33705 121.902C1.33705 128.103 1.16855 136.318 1.00005 141.678" stroke="white" stroke-width="2" stroke-linecap="round" stroke-linejoin="round"/>
<path d="M77.1416 26.0394C73.2341 24.8301 59.9952 23.8708 54.2159 24.8392C40.2346 27.1897 32.6747 35.7503 30.8121 38.2963C26.2579 44.452 23.4616 49.3074 20.3375 58.6274C17.7006 66.5288 15.9837 72.9391 14.8725 79.7177C13.8933 85.6279 12.3813 102.654 12.2493 109.119C12.099 116.275 11.557 127.758 11.557 133.341C11.557 138.924 11.7529 160.133 11.6254 164.975" stroke="white" stroke-width="2" stroke-linecap="round" stroke-linejoin="round"/>
<path d="M68.9609 37.2596C64.6891 36.0685 60.6632 36.3231 56.3595 37.2596C45.9441 39.5055 40.4791 47.7479 39.0901 50.162C35.7109 56.0449 34.035 59.3455 31.7169 68.2472C29.7541 75.7941 28.0508 83.25 27.2174 89.7285C26.4887 95.3704 25.3593 111.642 25.2637 117.816C25.1544 124.635 24.749 135.605 24.749 140.956C24.749 146.307 24.8948 180.182 24.7946 184.81" stroke="white" stroke-width="2" stroke-linecap="round" stroke-linejoin="round"/>
<path d="M36.5288 198.262C36.588 193.716 36.3102 155.604 36.3102 150.362C36.3102 145.12 36.5607 134.391 36.629 127.694C36.6882 121.648 37.3805 105.704 37.8268 100.18C38.3368 93.8152 38.9881 86.4502 40.5821 79.1307C42.5358 70.1472 43.1825 67.6149 45.2546 61.8547C46.1062 59.4906 50.164 46.3973 60.4883 47.843" stroke="white" stroke-width="2" stroke-linecap="round" stroke-linejoin="round"/>
</svg>
