<svg width="172" height="297" viewBox="0 0 172 297" fill="none" xmlns="http://www.w3.org/2000/svg">
<path d="M207.147 141.198L206.985 138.958C204.367 104.801 188.5 83.3869 174.5 64.4989C161.537 47.0093 150.46 31.9078 150.342 9.62731C150.342 6.1806 151.039 3.28537 150.18 2.29075C149.006 0.936682 144.256 4.69359 142.811 5.73745C121.787 20.8143 96.0126 41.726 89.8871 65.9761C85.6134 82.9388 82.0275 98.4736 87.1657 117.593C61.7498 104.653 55.6291 99.0743 53.1141 97.6808C42.8426 91.9888 39.3598 96.3071 36.5943 130.705C36.4125 132.98 36.103 146.378 36.103 148.003C36.103 195.365 74.5461 233.9 121.797 233.9C169.048 233.9 207.471 195.37 207.471 147.988C207.471 145.629 207.309 143.414 207.147 141.198Z" stroke="white" stroke-width="3" stroke-miterlimit="10"/>
<path d="M154.189 201.786L154.13 201.018C153.236 189.348 147.808 182.011 143.018 175.561C138.597 169.579 134.795 164.413 134.756 156.786C134.756 155.614 134.997 154.62 134.702 154.28C134.299 153.817 132.678 155.102 132.182 155.462C124.991 160.617 117.774 168.643 115.682 176.935C114.208 182.74 114.739 190.357 114.699 194.661C106.437 190.776 107.557 191.308 105.027 189.619C103.798 188.781 102.622 187.869 101.505 186.886C99.8349 185.507 97.9044 184.833 95.8806 200.18C95.8118 200.732 95.6792 203.543 95.6792 204.12C95.6792 211.912 98.7673 219.385 104.264 224.895C109.761 230.405 117.217 233.5 124.99 233.5C132.764 233.5 140.22 230.405 145.717 224.895C151.214 219.385 154.302 211.912 154.302 204.12C154.297 203.302 154.243 202.544 154.189 201.786Z" stroke="white" stroke-width="3" stroke-miterlimit="10"/>
<path d="M15.0024 237.496C19.3719 236.216 21.3269 229.734 19.3689 223.018C17.4109 216.302 12.2814 211.895 7.91181 213.175C3.54224 214.455 1.58728 220.937 3.54528 227.653C5.50328 234.369 10.6328 238.776 15.0024 237.496Z" stroke="white" stroke-width="3" stroke-miterlimit="10"/>
<path d="M53.7516 200.727L8.40186 213.01" stroke="white" stroke-width="3" stroke-miterlimit="10"/>
<path d="M75.061 220.339L14.9844 237.504" stroke="white" stroke-width="3" stroke-miterlimit="10"/>
<path d="M68.9295 283.584C70.1956 277.966 64.13 271.805 55.3814 269.824C46.6329 267.843 38.5144 270.792 37.2482 276.41C35.982 282.028 42.0477 288.188 50.7962 290.169C59.5447 292.15 67.6633 289.202 68.9295 283.584Z" stroke="white" stroke-width="3" stroke-miterlimit="10"/>
<path d="M38.583 273.724L76.2598 220.221" stroke="white" stroke-width="3" stroke-miterlimit="10"/>
<path d="M68.4604 284.999L101.368 231.698" stroke="white" stroke-width="3" stroke-miterlimit="10"/>
<path d="M124.789 294.894C134.431 294.032 141.816 288.5 141.286 282.538C140.755 276.576 132.509 272.443 122.867 273.305C113.226 274.168 105.84 279.7 106.371 285.662C106.902 291.623 115.148 295.757 124.789 294.894Z" stroke="white" stroke-width="3" stroke-miterlimit="10"/>
<path d="M106.387 285.655L107.502 233.403" stroke="white" stroke-width="3" stroke-miterlimit="10"/>
<path d="M141.304 282.532L136.097 232.447" stroke="white" stroke-width="3" stroke-miterlimit="10"/>
<path d="M143.248 231.255L188.377 271.596" stroke="white" stroke-width="3" stroke-miterlimit="10"/>
<path d="M216.735 254.024L169.46 219.552" stroke="white" stroke-width="3" stroke-miterlimit="10"/>
</svg>
