<svg width="307" height="252" viewBox="0 0 307 252" fill="none" xmlns="http://www.w3.org/2000/svg">
<path d="M28.4574 195.284C30.9085 194.906 32.59 192.612 32.2132 190.16C31.8364 187.709 29.5439 186.029 27.0928 186.407C24.6418 186.785 22.9603 189.079 23.3371 191.531C23.7139 193.982 26.0063 195.662 28.4574 195.284Z" fill="white" stroke="white" stroke-width="3" stroke-miterlimit="10"/>
<path d="M28.4712 190.82L51.8854 221.535" stroke="white" stroke-width="3" stroke-miterlimit="10"/>
<path d="M57.0021 231.605C60.3528 231.087 62.6514 227.952 62.1363 224.601C61.6212 221.25 58.4874 218.952 55.1367 219.47C51.7861 219.987 49.4874 223.123 50.0025 226.474C50.5176 229.825 53.6515 232.122 57.0021 231.605Z" stroke="white" stroke-width="3" stroke-miterlimit="10"/>
<path d="M62.1309 224.606L142.001 172.985" stroke="white" stroke-width="3" stroke-miterlimit="10"/>
<path d="M151.664 177.052C156.551 176.298 159.903 171.722 159.152 166.832C158.4 161.942 153.829 158.59 148.942 159.345C144.055 160.099 140.703 164.675 141.454 169.564C142.206 174.454 146.777 177.806 151.664 177.052Z" stroke="white" stroke-width="3" stroke-miterlimit="10"/>
<path d="M157.052 162.402L215.071 85.2389" stroke="white" stroke-width="3" stroke-miterlimit="10"/>
<path d="M223.799 87.1051C229.399 86.2406 233.241 80.9972 232.38 75.3938C231.518 69.7904 226.28 65.9488 220.68 66.8134C215.079 67.678 211.238 72.9213 212.099 78.5247C212.961 84.1281 218.199 87.9697 223.799 87.1051Z" stroke="white" stroke-width="3" stroke-miterlimit="10"/>
<path d="M217.55 21.5899C220.001 21.2115 221.682 18.9176 221.305 16.4663C220.929 14.0149 218.636 12.3345 216.185 12.7129C213.734 13.0913 212.053 15.3852 212.429 17.8365C212.806 20.2879 215.099 21.9683 217.55 21.5899Z" fill="white" stroke="white" stroke-width="3" stroke-miterlimit="10"/>
<path d="M217.264 21.0362L217.908 68.0022" stroke="white" stroke-width="3" stroke-miterlimit="10"/>
<path d="M271.951 30.1977C276.31 29.5248 279.3 25.4438 278.63 21.0826C277.959 16.7214 273.882 13.7314 269.524 14.4043C265.165 15.0772 262.175 19.1582 262.845 23.5194C263.516 27.8806 267.593 30.8706 271.951 30.1977Z" stroke="white" stroke-width="3" stroke-miterlimit="10"/>
<path d="M220.832 16.2308L264.612 16.8394" stroke="white" stroke-width="3" stroke-miterlimit="10"/>
<path d="M228.966 69.673L264.369 27.5825" stroke="white" stroke-width="3" stroke-miterlimit="10"/>
<path d="M306.595 85.6263C309.37 85.1979 311.274 82.6011 310.847 79.826C310.421 77.0509 307.825 75.1485 305.051 75.5769C302.276 76.0052 300.372 78.6021 300.799 81.3772C301.225 84.1523 303.821 86.0547 306.595 85.6263Z" stroke="white" stroke-width="3" stroke-miterlimit="10"/>
<path d="M275.74 27.9399L305.051 75.5704" stroke="white" stroke-width="3" stroke-miterlimit="10"/>
<path d="M305.502 150.15C309.651 149.51 312.497 145.626 311.858 141.475C311.22 137.325 307.34 134.479 303.192 135.119C299.044 135.76 296.198 139.644 296.836 143.794C297.474 147.945 301.354 150.791 305.502 150.15Z" stroke="white" stroke-width="3" stroke-miterlimit="10"/>
<path d="M306.605 85.6339L304.838 134.934" stroke="white" stroke-width="3" stroke-miterlimit="10"/>
<path d="M229.273 83.6107L296.676 141.718" stroke="white" stroke-width="3" stroke-miterlimit="10"/>
<path d="M240.895 219.864C243.67 219.436 245.574 216.839 245.147 214.064C244.72 211.289 242.125 209.387 239.35 209.815C236.576 210.243 234.672 212.84 235.099 215.615C235.525 218.39 238.12 220.293 240.895 219.864Z" stroke="white" stroke-width="3" stroke-miterlimit="10"/>
<path d="M156.901 174.099L235.566 212" stroke="white" stroke-width="3" stroke-miterlimit="10"/>
<path d="M243.965 211.445L299.902 148.877" stroke="white" stroke-width="3" stroke-miterlimit="10"/>
</svg>
