<?xml version="1.0" encoding="UTF-8" standalone="no"?>
<svg
   xmlns:dc="http://purl.org/dc/elements/1.1/"
   xmlns:cc="http://creativecommons.org/ns#"
   xmlns:rdf="http://www.w3.org/1999/02/22-rdf-syntax-ns#"
   xmlns:svg="http://www.w3.org/2000/svg"
   xmlns="http://www.w3.org/2000/svg"
   width="60.703606mm"
   height="62.669121mm"
   viewBox="0 0 716.96998 740.18467"
   version="1.1"
   id="svg3">
  <metadata
     id="metadata9">
    <rdf:RDF>
      <cc:Work
         rdf:about="">
        <dc:format>image/svg+xml</dc:format>
        <dc:type
           rdf:resource="http://purl.org/dc/dcmitype/StillImage" />
        <dc:title></dc:title>
      </cc:Work>
    </rdf:RDF>
  </metadata>
  <defs
     id="defs7" />
  <path
     id="Selection"
     fill="none"
     stroke="black"
     stroke-width="1"
     d="m 166.97,17 c 0,0 25,7.42 25,7.42 0,0 22,5.58 22,5.58 -4.12,4.11 -10.76,6.63 -16,9.25 0,0 -22,12.2 -22,12.2 -19.14,11.55 -34.26,23.61 -51,38.26 0,0 -12,10.33 -12,10.33 0,0 -11.09,11.96 -11.09,11.96 0,0 -21.44,24 -21.44,24 0,0 -9.18,13 -9.18,13 -21,29.39 -36.08,59.24 -48.71,93 0,0 -8.89,26.96 -8.89,26.96 0,0 -2.74,6.21 -2.74,6.21 0,0 -6.35,26.83 -6.35,26.83 0,0 0,10 0,10 0,0 -4.57,52.04 -4.57,52.04 0,0 0.97,18.96 0.97,18.96 0,0 0,16 0,16 0.15,12.47 5.85,48.44 8.9,61 0,0 6.38,22 6.38,22 18.11,60.12 48.27,110.55 92.72,155 11.39,11.39 23.13,22.37 36,32.1 14.65,11.07 30.88,20.47 47,29.21 26.04,14.11 39.36,18.97 67,28.14 8.51,2.82 24.41,8.26 33,8.8 0,0 5,0 5,0 0,0 6.91,1.2 6.91,1.2 0,0 23.09,2.98 23.09,2.98 27.7,2.03 70.84,-0.12 98,-5.43 19.98,-3.9 38.8,-10.46 58,-17 0,0 21,-8.44 21,-8.44 2.43,-0.27 10.22,1.67 13,2.32 0,0 27,6.77 27,6.77 3.27,0.76 8.83,2.53 12,2.04 4.28,-0.67 15.78,-9.14 21,-11.69 0,0 0,-2 0,-2 0,0 -46,-12 -46,-12 21.43,-10.31 56.74,-38.37 73.96,-55.09 0,0 10.13,-10.95 10.13,-10.95 25.68,-26.5 44.71,-55.06 61.16,-87.96 19.19,-38.39 31.05,-73.49 37.48,-116 0,0 3.27,-42 3.27,-42 0,0 -2.06,-51 -2.06,-51 0,0 0,-9 0,-9 -7.35,-59.42 -30.27,-121.02 -64.71,-170 -20.02,-28.47 -48.5,-59.11 -76.23,-80.1 -14.04,-10.63 -37.23,-25.03 -53,-33.04 0,0 -11,-5.11 -11,-5.11 -29.7,-14.75 -42.29,-18.12 -74,-25.4 -21.77,-5 -23.19,-5.84 -46,-7.44 0,0 -10,-0.91 -10,-0.91 0,0 -35,0 -35,0 0,0 -32,2.85 -32,2.85 0,0 -15,1.81 -15,1.81 0,0 -35,8.36 -35,8.36 -3.94,1.22 -16.8,5.75 -20,5.71 0,0 -41,-10.85 -41,-10.85 -2.73,-0.71 -11.79,-3.32 -14,-3.05 -3.35,0.41 -18.14,9.57 -21,12.17 z m 349,659 c 0,0 11,-52 11,-52 -4.22,2.36 -18.68,10.76 -20.86,14.21 -1.45,2.27 -2.58,8.84 -3.26,11.79 0,0 -6.01,26 -6.01,26 -0.74,2.96 -1.87,9.46 -3.6,11.61 -1.98,2.46 -6.38,4 -9.27,5.24 0,0 -21,7.48 -21,7.48 -25.95,8.68 -44.76,12.92 -72,15.83 0,0 -21.01,1.83 -21.01,1.83 -17.32,0.28 -45.25,-0.4 -61.99,-3.28 -5.6,-0.96 -6.4,-2.25 -11,-3.61 0,0 -18,-4.21 -18,-4.21 0,0 -18,-3.05 -18,-3.05 0,0 -42,-16.15 -42,-16.15 C 123.57,643.55 55.48,555.45 30.87,454 c 0,0 -2.35,-13 -2.35,-13 -3.97,-19.9 -6.37,-39.73 -6.55,-60 -0.16,-18.05 0.05,-36.08 2.28,-54 0,0 7.3,-33 7.3,-33 0,0 2.39,-10.84 2.39,-10.84 0.94,-6.03 0.87,-8.81 2.75,-15.16 5.87,-19.77 13.87,-38.56 23.03,-57 0,0 6.56,-14 6.56,-14 0,0 13.76,-22 13.76,-22 19.76,-29.72 36.75,-49.28 63.84,-72.55 19.26,-16.54 36.31,-29.03 59.09,-40.42 7.22,-3.61 16.21,-10.2 24,-11.03 0,0 -13,50 -13,50 5.82,-2.59 19.53,-9.33 22.01,-15.04 0,0 8.84,-31.96 8.84,-31.96 1.23,-4.54 1.84,-10.88 6.28,-13.44 4.28,-2.47 24.17,-7.86 29.87,-9.21 0,0 13,-3.35 13,-3.35 18.99,-3.87 38.65,-5.8 58,-6 0,0 8.91,-0.59 8.91,-0.59 0,0 42.09,2.72 42.09,2.72 0,0 25,5.45 25,5.45 0,0 36,8.6 36,8.6 27.45,8.76 66.95,29.2 90,46.3 32.21,23.88 61.96,54.93 83.92,88.52 0,0 12.95,22 12.95,22 0,0 5.35,9 5.35,9 10.48,20.06 21.61,49.09 27.49,71 0,0 4.5,21 4.5,21 3.02,14.19 4.86,25.47 5.88,40 0,0 0.95,10 0.95,10 0,0 0,10 0,10 0,0 0.78,10.96 0.78,10.96 0,0 0,8.7 0,8.7 -0.58,71.72 -27,148.09 -69.95,205.34 -21.82,29.1 -44.5,51.86 -73.87,73.37 -7.07,5.18 -28.44,19.42 -36,21.63 z"
     style="fill:#ffffff;stroke:none" />
</svg>
