<?xml version="1.0" encoding="UTF-8" standalone="no"?>
<svg
   xmlns:dc="http://purl.org/dc/elements/1.1/"
   xmlns:cc="http://creativecommons.org/ns#"
   xmlns:rdf="http://www.w3.org/1999/02/22-rdf-syntax-ns#"
   xmlns:svg="http://www.w3.org/2000/svg"
   xmlns="http://www.w3.org/2000/svg"
   xmlns:sodipodi="http://sodipodi.sourceforge.net/DTD/sodipodi-0.dtd"
   xmlns:inkscape="http://www.inkscape.org/namespaces/inkscape"
   width="205.16595mm"
   height="205.25693mm"
   viewBox="0 0 2423.2199 2424.2943"
   version="1.1"
   id="svg3"
   sodipodi:docname="arrows.svg"
   inkscape:version="1.0.2 (1.0.2+r75+1)">
  <metadata
     id="metadata9">
    <rdf:RDF>
      <cc:Work
         rdf:about="">
        <dc:format>image/svg+xml</dc:format>
        <dc:type
           rdf:resource="http://purl.org/dc/dcmitype/StillImage" />
        <dc:title></dc:title>
      </cc:Work>
    </rdf:RDF>
  </metadata>
  <defs
     id="defs7" />
  <sodipodi:namedview
     pagecolor="#ffffff"
     bordercolor="#666666"
     borderopacity="1"
     objecttolerance="10"
     gridtolerance="10"
     guidetolerance="10"
     inkscape:pageopacity="0"
     inkscape:pageshadow="2"
     inkscape:window-width="1920"
     inkscape:window-height="1027"
     id="namedview5"
     showgrid="false"
     fit-margin-top="0"
     fit-margin-left="0"
     fit-margin-right="0"
     fit-margin-bottom="0"
     inkscape:zoom="0.82754627"
     inkscape:cx="227.40812"
     inkscape:cy="399.92321"
     inkscape:window-x="0"
     inkscape:window-y="24"
     inkscape:window-maximized="1"
     inkscape:current-layer="svg3"
     inkscape:document-rotation="0"
     inkscape:snap-page="false" />
  <path
     id="Selection"
     fill="none"
     stroke="black"
     stroke-width="0.985012"
     d="m 601,35.66637 c 0,0 -11,5.326669 -11,5.326669 0,0 -19,10.391372 -19,10.391372 0,0 -9,6.597696 -9,6.597696 0,0 16,4.113857 16,4.113857 0,0 45,11.662399 45,11.662399 0,0 43,11.303407 43,11.303407 0,0 10,3.4929 10,3.4929 0,0 30,8.091877 30,8.091877 0,0 19,4.996783 19,4.996783 0,0 0,1.9405 0,1.9405 -16.42,5.73417 -41.81,19.66696 -58,27.6327 0,0 -23,12.0311 -23,12.0311 0,0 -12,5.68566 -12,5.68566 0,0 -17,10.03238 -17,10.03238 0,0 -8,4.01683 -8,4.01683 0,0 -50,31.61073 -50,31.61073 0,0 -15,9.13005 -15,9.13005 0,0 -10,7.91723 -10,7.91723 0,0 -11.91,7.44181 -11.91,7.44181 0,0 -9.09,7.21866 -9.09,7.21866 0,0 -23.91,15.91209 -23.91,15.91209 0,0 -54.6,45.74726 -54.6,45.74726 0,0 -31.4,25.89596 -31.4,25.89596 0,0 -25.53,24.51819 -25.53,24.51819 0,0 -15.49,14.65078 -15.49,14.65078 0,0 -8.48,9.3338 -8.48,9.3338 0,0 -18.2,18.3086 -18.2,18.3086 0,0 -10.99,12.8267 -10.99,12.8267 0,0 -12.79,12.21545 -12.79,12.21545 0,0 -20.16,24.1301 -20.16,24.1301 0,0 -9.18,8.97481 -9.18,8.97481 0,0 -9.95,13.08866 -9.95,13.08866 0,0 -5.86,6.67532 -5.86,6.67532 0,0 -7.46,11.76912 -7.46,11.76912 0,0 -8.33,11.06085 -8.33,11.06085 0,0 -5.86,8.90689 -5.86,8.90689 0,0 -9.6,12.04078 -9.6,12.04078 0,0 -4.4,6.30663 -4.4,6.30663 0,0 -5.49,6.34544 -5.49,6.34544 0,0 -12.2,19.35647 -12.2,19.35647 0,0 -16.21,24.53761 -16.21,24.53761 0,0 -5.69,7.73289 -5.69,7.73289 0,0 -6.42,11.40043 -6.42,11.40043 0,0 -19.01,31.31965 -19.01,31.31965 0,0 -20.21,40.47881 -20.21,40.47881 -17.46,34.6088 -34.49,69.36313 -50.08,104.78694 0,0 -3.3,9.61517 -3.3,9.61517 0,0 -6.55,15.61131 -6.55,15.61131 0,0 -2.02,6.79175 -2.02,6.79175 0,0 -4.47,11.60419 -4.47,11.60419 0,0 -2.74,5.16169 -2.74,5.16169 0,0 -1.67,5.54989 -1.67,5.54989 0,0 -3.09,6.79167 -3.09,6.79167 0,0 -2.14,7.76201 -2.14,7.76201 0,0 -3.06,6.79175 -3.06,6.79175 0,0 -2.63,9.70253 -2.63,9.70253 0,0 -3.71,8.73219 -3.71,8.73219 0,0 -3.05,12.60354 -3.05,12.60354 0,0 -3.64,8.78083 -3.64,8.78083 0,0 -4.18,18.39586 -4.18,18.39586 -2.16,7.09259 -4.39,5.46254 -6,10.72128 0,0 -4.67,20.32676 -4.67,20.32676 0,0 -8.23,35.89918 -8.23,35.89918 0,0 -10.05,44.63149 -10.05,44.63149 -0.47,5.2588 1.7,6.1417 1.35,10.6728 0,0 -3.85,18.4347 -3.85,18.4347 0,0 -0.92,11.643 -0.92,11.643 0,0 -2.38,12.6132 -2.38,12.6132 0,0 0,6.7918 0,6.7918 0,0 -1.93,10.6727 -1.93,10.6727 0,0 0,6.7918 0,6.7918 0,0 -1.4,7.762 -1.4,7.762 0,0 -1.26,20.3752 -1.26,20.3752 0,0 -1.08,13.5835 -1.08,13.5835 0,0 -1.22,8.7322 -1.22,8.7322 0,0 0,5.8215 0,5.8215 0,0 -1.24,17.4645 -1.24,17.4645 -0.33,5.0841 1.03,9.1301 -2.37,13.5835 0,0 0,1.9405 0,1.9405 2.75,3.9683 1.22,14.2627 1.38,19.405 0,0 0,12.6133 0,12.6133 0,0 0.97,45.6017 0.97,45.6017 0,0 0,48.5125 0,48.5125 0,0 1.02,12.6132 1.02,12.6132 0,0 2.05,23.286 2.05,23.286 0,0 3.08,36.8695 3.08,36.8695 0,0 3.38,18.3959 3.38,18.3959 0,0 0.59,7.8396 0.59,7.8396 0,0 3.47,21.3067 3.47,21.3067 0,0 1.02,10.6727 1.02,10.6727 0,0 2.59,10.6728 2.59,10.6728 0,0 1.12,8.4023 1.12,8.4023 0,0 3.33,10.0324 3.33,10.0324 0,0 0,5.6566 0,5.6566 0,0 4.6,23.4509 4.6,23.4509 0,0 8.14,36.8695 8.14,36.8695 0,0 4.16,11.643 4.16,11.643 0,0 3.98,15.524 3.98,15.524 0,0 4.4,13.5834 4.4,13.5834 0,0 1.18,5.8215 1.18,5.8215 2.06,7.8106 8.23,19.4438 7.54,27.167 3.93,4.4244 3.24,7.5195 5.18,12.6133 0,0 7.77,21.3552 7.77,21.3552 1.56,4.8318 -0.34,3.2212 3.63,12.6035 2.82,6.6753 10.53,21.5298 10.42,28.1372 0,0 7.68,15.1165 7.68,15.1165 0,0 17.99,41.158 17.99,41.158 0,0 10.28,21.3455 10.28,21.3455 0,0 5.05,13.5835 5.05,13.5835 0,0 12,19.405 12,19.405 -0.03,5.4625 2.17,7.0149 4.68,11.643 2.68,4.9385 4.49,11.1578 9.32,14.5537 0,0 -1,1.9405 -1,1.9405 5.92,5.3752 8.72,13.5932 12.59,20.3655 0,0 4.94,7.8591 4.94,7.8591 0,0 4.49,9.3338 4.49,9.3338 0,0 9.54,14.1365 9.54,14.1365 0,0 4.01,7.4806 4.01,7.4806 0,0 8.18,11.6527 8.18,11.6527 0,0 6.48,11.4781 6.48,11.4781 0,0 14.35,19.8416 14.35,19.8416 0,0 8.32,12.6714 8.32,12.6714 0,0 23.75,30.0389 23.75,30.0389 0,0 9.66,12.8947 9.66,12.8947 0,0 27.57,33.949 27.57,33.949 3.7,3.9877 5.08,7.6165 10.12,10.11 0,0 -1,1.9405 -1,1.9405 4.33,3.2212 10.86,11.8273 14.66,16.1935 0,0 20.35,22.5291 20.35,22.5291 5.98,6.9373 13.05,12.8364 19.84,18.9684 0,0 14.87,14.9225 14.87,14.9225 0,0 17.03,16.0964 17.03,16.0964 4.16,4.1527 6.2,7.7232 12.25,9.2853 0,0 2,2.9107 2,2.9107 1,4.2885 8.44,9.4406 11.95,12.3901 0,0 8.05,7.6747 8.05,7.6747 0,0 16.84,14.2433 16.84,14.2433 3.69,2.9495 7.59,7.0731 12.16,8.3829 0,0 -1,1.9405 -1,1.9405 6.84,3.1436 5.01,5.2879 12,5.8215 0,0 -2,1.9405 -2,1.9405 0,0 23.65,18.3571 23.65,18.3571 0,0 18.35,13.7873 18.35,13.7873 0,0 36.99,23.7711 36.99,23.7711 0,0 9.05,6.6462 9.05,6.6462 0,0 15.87,9.7025 15.87,9.7025 0,0 9.34,6.2193 9.34,6.2193 0,0 15.71,9.2368 15.71,9.2368 4.67,2.8137 8.32,6.2193 14.04,6.3939 3.63,6.5007 19.01,12.6326 26,16.3778 0,0 31,16.8338 31,16.8338 0,0 33.84,16.2323 33.84,16.2323 0,0 31.16,14.6508 31.16,14.6508 0,0 12,5.8797 12,5.8797 0,0 5.83,2.0666 5.83,2.0666 0,0 42.34,18.4542 42.34,18.4542 0,0 6.83,2.2606 6.83,2.2606 0,0 6,2.6682 6,2.6682 0,0 26.83,8.7808 26.83,8.7808 0,0 6.21,2.7555 6.21,2.7555 0,0 10.96,2.9107 10.96,2.9107 0,0 8,3.328 8,3.328 0,0 11,2.7167 11,2.7167 0,0 12,4.3855 12,4.3855 0,0 17.99,3.9392 17.99,3.9392 4.59,1.436 6.2,3.2504 9.05,4.3274 0,0 11.96,3.5414 11.96,3.5414 0,0 36,8.0142 36,8.0142 0,0 50,11.2355 50,11.2355 0,0 0,-1.9405 0,-1.9405 8.07,4.1624 7,1.0576 15,2.0278 0,0 24,4.7446 24,4.7446 0,0 7,0 7,0 0,0 14,2.8137 14,2.8137 0,0 7,0 7,0 0,0 10,1.8046 10,1.8046 0,0 6,0 6,0 0,0 10,1.5621 10,1.5621 0,0 10.96,0.7471 10.96,0.7471 0,0 6.12,1.7562 6.12,1.7562 0,0 8.92,-0.5434 8.92,-0.5434 0,0 7,0.9897 7,0.9897 0,0 42,1.436 42,1.436 0,0 37,0 37,0 0,0 49,0 49,0 0,0 59,-3.5901 59,-3.5901 0,0 16,-0.6499 16,-0.6499 0,0 8.99,-1.3196 8.99,-1.3196 0,0 26.01,-2.5808 26.01,-2.5808 0,0 41,-6.0059 41,-6.0059 0,0 19,-2.3092 19,-2.3092 0,0 9,-0.5918 9,-0.5918 0,0 62.83,-13.5156 62.83,-13.5156 0,0 13.17,-3.881 13.17,-3.881 0,0 57,-16.1546 57,-16.1546 0,0 20,-5.6954 20,-5.6954 0,0 17,-6.3454 17,-6.3454 0,0 9,-2.8235 9,-2.8235 5.39,-2.0181 12.28,-5.4237 18,-5.2393 0,0 3.11,-2.1054 3.11,-2.1054 0,0 7.89,-2.1734 7.89,-2.1734 0,0 11,-4.2497 11,-4.2497 0,0 23.17,-9.751 23.17,-9.751 0,0 7.41,-2.6973 7.41,-2.6973 0,0 17.42,-7.1604 17.42,-7.1604 3.15,-2.7167 4.82,-3.4056 9,-3.881 4.09,-2.6488 9.55,-0.1262 14,0.9702 0,0 31,6.8015 31,6.8015 0,0 40,9.2367 40,9.2367 0,0 19,4.2594 19,4.2594 0,0 9,3.3086 9,3.3086 0,0 40,9.0427 40,9.0427 0,0 22,4.7833 22,4.7833 6.11,0.4658 16.47,-7.6067 22,-10.8474 0,0 55,-33.3765 55,-33.3765 -6.24,-5.4237 -25.2,-7.9367 -34,-10.0615 0,0 -47,-10.5369 -47,-10.5369 0,0 -36,-8.4994 -36,-8.4994 0,0 -17,-3.8616 -17,-3.8616 0,0 -10,-3.2795 -10,-3.2795 -5.98,-1.3971 -10.82,-0.6791 -14,-6.4521 7.71,-1.2419 13.5,-6.6656 20,-10.566 0,0 12,-6.0932 12,-6.0932 0,0 15,-9.489 15,-9.489 0,0 24.96,-15.9897 24.96,-15.9897 0,0 10.04,-7.5874 10.04,-7.5874 0,0 18.96,-11.8953 18.96,-11.8953 0,0 17.08,-12.3997 17.08,-12.3997 0,0 12.96,-8.0046 12.96,-8.0046 0,0 31,-24.5085 31,-24.5085 0,0 6.58,-4.6863 6.58,-4.6863 0,0 16.42,-14.6217 16.42,-14.6217 0,0 40,-33.4445 40,-33.4445 0,0 41.5,-39.8093 41.5,-39.8093 0,0 33.91,-34.6476 33.91,-34.6476 0,0 16.3,-16.7465 16.3,-16.7465 0,0 4.88,-6.3163 4.88,-6.3163 0,0 8.91,-8.4897 8.91,-8.4897 0,0 14.68,-17.0473 14.68,-17.0473 0,0 6.7,-10.6339 6.7,-10.6339 0,0 24.02,-29.3113 24.02,-29.3113 0,0 11.53,-16.3196 11.53,-16.3196 0,0 16.35,-20.3849 16.35,-20.3849 0,0 10.49,-16.4554 10.49,-16.4554 0,0 11.99,-16.9309 11.99,-16.9309 0,0 6.99,-11.2355 6.99,-11.2355 0,0 5.43,-6.9664 5.43,-6.9664 0,0 14.8,-27.9723 14.8,-27.9723 0,0 6.27,-9.7025 6.27,-9.7025 0,0 8.94,-15.5239 8.94,-15.5239 0,0 5.42,-10.6728 5.42,-10.6728 0,0 30.36,-59.1852 30.36,-59.1852 12.15,-24.2562 23.82,-48.6677 34.08,-73.739 0,0 15.28,-39.7802 15.28,-39.7802 0,0 7.36,-18.4347 7.36,-18.4347 0,0 2.37,-7.762 2.37,-7.762 0,0 3.03,-6.7918 3.03,-6.7918 0,0 2.45,-8.7322 2.45,-8.7322 0,0 3.79,-9.7025 3.79,-9.7025 0,0 2.21,-8.7323 2.21,-8.7323 0,0 4.47,-11.6429 4.47,-11.6429 0,0 4.61,-19.3177 4.61,-19.3177 0,0 3.04,-6.9179 3.04,-6.9179 0,0 16.84,-74.6704 16.84,-74.6704 0,0 7.52,-32.9885 7.52,-32.9885 0,0 0.58,-10.6727 0.58,-10.6727 0,0 3.84,-16.4943 3.84,-16.4943 0,0 0,-10.6727 0,-10.6727 0,0 2.61,-11.6333 2.61,-11.6333 0,0 1.62,-22.3254 1.62,-22.3254 0,0 1.66,-9.7025 1.66,-9.7025 0,0 1.26,-20.3753 1.26,-20.3753 0,0 0.7,-8.7322 0.7,-8.7322 -0.15,-6.1514 0.75,-6.5201 1.12,-11.643 0,0 1.13,-28.1372 1.13,-28.1372 0,0 1.18,-15.524 1.18,-15.524 0,0 0,-12.6133 0,-12.6133 0,0 0,-10.6727 0,-10.6727 0,0 0,-10.6728 0,-10.6728 0,0 -0.77,-43.6612 -0.77,-43.6612 0,0 -0.52,-24.3435 -0.52,-24.3435 0,0 -1.06,-20.288 -1.06,-20.288 0,0 -2.18,-34.9289 -2.18,-34.9289 0,0 -1.69,-15.524 -1.69,-15.524 0,0 0,-8.7323 0,-8.7323 -0.02,-14.7187 -4.56,-37.2576 -6.73,-52.3934 0,0 -5.43,-35.89927 -5.43,-35.89927 0,0 -4.18,-15.52402 -4.18,-15.52402 0,0 -3.08,-15.52394 -3.08,-15.52394 0,0 -2.53,-9.70253 -2.53,-9.70253 0,0 -1.02,-8.46059 -1.02,-8.46059 0,0 -5.82,-21.61711 -5.82,-21.61711 0,0 -2.08,-12.61331 -2.08,-12.61331 0,0 -4.3,-17.46447 -4.3,-17.46447 0,0 -9.78,-30.07769 -9.78,-30.07769 0,0 -2.51,-9.70254 -2.51,-9.70254 0,0 -4.25,-11.64297 -4.25,-11.64297 0,0 -3.24,-11.64298 -3.24,-11.64298 0,0 -7.81,-19.40498 -7.81,-19.40498 0,0 -16.69,-47.54224 -16.69,-47.54224 0,0 -11.38,-24.25624 -11.38,-24.25624 0,0 -10.34,-24.25624 -10.34,-24.25624 0,0 -8.39,-17.46448 -8.39,-17.46448 0,0 -8.42,-19.405 -8.42,-19.405 0,0 -5.45,-9.7025 -5.45,-9.7025 0,0 -8.08,-18.43473 -8.08,-18.43473 0,0 -4.29,-6.79175 -4.29,-6.79175 0,0 -5.21,-9.7025 -5.21,-9.7025 0,0 -9.54,-14.55373 -9.54,-14.55373 0,0 -7.88,-14.55374 -7.88,-14.55374 0,0 -13.08,-20.64692 -13.08,-20.64692 0,0 -4.53,-9.43081 -4.53,-9.43081 0,0 -15.53,-24.25624 -15.53,-24.25624 0,0 -8.51,-13.58349 -8.51,-13.58349 0,0 -7.06,-8.81957 -7.06,-8.81957 0,0 -12.73,-19.31767 -12.73,-19.31767 0,0 -12.42,-15.61131 -12.42,-15.61131 0,0 -28.62,-36.21941 -28.62,-36.21941 0,0 -52.89,-62.49377 -52.89,-62.49377 0,0 -15.69,-16.38751 -15.69,-16.38751 0,0 -12.6,-13.85516 -12.6,-13.85516 0,0 -14.74,-13.03045 -14.74,-13.03045 0,0 -33.85,-31.72716 -33.85,-31.72716 0,0 -17.65,-16.64948 -17.65,-16.64948 0,0 -7.11,-5.4625 -7.11,-5.4625 0,0 -26.27,-22.60682 -26.27,-22.60682 0,0 -7.94,-5.90882 -7.94,-5.90882 0,0 -18.63,-15.54339 -18.63,-15.54339 0,0 -7.26,-4.63779 -7.26,-4.63779 0,0 -16.29,-12.11842 -16.29,-12.11842 0,0 -20.16,-14.67017 -20.16,-14.67017 0,0 -5.43,-4.2691 -5.43,-4.2691 0,0 -16.58,-8.87778 -16.58,-8.87778 0,0 -60,-36.98591 -60,-36.98591 0,0 -8,-4.00713 -8,-4.00713 0,0 -29,-16.48454 -29,-16.48454 0,0 -80.91,-38.95551 -80.91,-38.95551 0,0 -29.37,-13.641709 -29.37,-13.641709 0,0 -43.72,-16.571862 -43.72,-16.571862 0,0 -7,-2.988368 -7,-2.988368 0,0 -5.91,-1.717342 -5.91,-1.717342 0,0 -7.13,-3.075692 -7.13,-3.075692 0,0 -7.96,-2.231573 -7.96,-2.231573 0,0 -8,-3.163013 -8,-3.163013 0,0 -8,-2.231573 -8,-2.231573 0,0 -6,-2.716699 -6,-2.716699 0,0 -15,-3.764569 -15,-3.764569 0,0 -9,-3.551111 -9,-3.551111 0,0 -63,-13.971593 -63,-13.971593 0,0 -61,-13.534979 -61,-13.534979 -8,-1.921094 -32.13,-7.868723 -39,-7.761996 -7.21,0.09703 -11.37,-2.0278212 -18,-2.9204504 0,0 -8,0 -8,0 0,0 -10,-2.0181191 -10,-2.0181191 0,0 -8,0 -8,0 0,0 -28,-3.1339057 -28,-3.1339057 C 1323,2.9786658 1274,0 1274,0 c 0,0 -19,0 -19,0 0,0 -68,0 -68,0 0,0 -14,0.61125715 -14,0.61125715 0,0 -12,0 -12,0 0,0 -35,2.55175605 -35,2.55175605 0,0 -7,0 -7,0 0,0 -22,2.2606812 -22,2.2606812 0,0 -13,0.708282 -13,0.708282 0,0 -8,1.3971592 -8,1.3971592 0,0 -23.17,2.3285984 -23.17,2.3285984 0,0 -8.83,1.552399 -8.83,1.552399 0,0 -23,1.911392 -23,1.911392 0,0 -12,2.774913 -12,2.774913 0,0 -7,0.85382 -7,0.85382 0,0 -22,4.492255 -22,4.492255 0,0 -9,1.503886 -9,1.503886 0,0 -43,10.905604 -43,10.905604 0,0 -28.04,6.636506 -28.04,6.636506 0,0 -7.96,2.968964 -7.96,2.968964 0,0 -11,2.794318 -11,2.794318 0,0 -20,6.326025 -20,6.326025 0,0 -18,4.938571 -18,4.938571 -7.79,2.629376 -11.95,6.549184 -21,6.229002 -4.46,-0.155241 -6.83,-1.979309 -11,-3.007774 0,0 -31,-7.723185 -31,-7.723185 0,0 -24,-6.917879 -24,-6.917879 0,0 -19,-4.521362 -19,-4.521362 0,0 -9,-3.221229 -9,-3.221229 0,0 -20,-5.035594 -20,-5.035594 0,0 -14,-4.521362 -14,-4.521362 0,0 -25,-5.967035 -25,-5.967035 0,0 -16,-4.298205 -16,-4.298205 -3.67,-1.300134 -12.3,-4.31761 -16,-3.716055 -2.83,0.456017 -18.46,9.673387 -22,11.730316 -4.14,2.406218 -11.51,5.365479 -14,9.120345 z m 248,32.98848 c 0,0 0,0.97025 0,0.97025 0,0 -1,-0.97025 -1,-0.97025 0,0 1,0 1,0 z m 970,178.5259 c 0,0 5,-0.97025 5,-0.97025 2.54,4.55047 7.81,6.71413 12,9.78011 10.56,7.73289 7.33,4.23999 15,8.88749 0,0 20.4,13.66111 20.4,13.66111 0,0 23.18,18.25039 23.18,18.25039 3.37,2.43533 4.46,1.90169 9.41,5.79239 0,0 26.59,22.43217 26.59,22.43217 0,0 12.33,9.29499 12.33,9.29499 0,0 22.21,19.82219 22.21,19.82219 0,0 7.59,6.04466 7.59,6.04466 0,0 13.57,13.53498 13.57,13.53498 0,0 20.05,17.76527 20.05,17.76527 0,0 9.8,10.57572 9.8,10.57572 0,0 15.58,13.95218 15.58,13.95218 0,0 6.29,7.34479 6.29,7.34479 0,0 20.45,21.92764 20.45,21.92764 0,0 7.96,10.34286 7.96,10.34286 0,0 8.39,8.89718 8.39,8.89718 0,0 4.82,6.52008 4.82,6.52008 0,0 15.34,17.9011 15.34,17.9011 0,0 3.92,5.4528 3.92,5.4528 0,0 4.9,5.25876 4.9,5.25876 0,0 19.79,25.90566 19.79,25.90566 0,0 12.34,14.806 12.34,14.806 0,0 9.26,14.95154 9.26,14.95154 0,0 8.75,11.16758 8.75,11.16758 0,0 6.2,10.17792 6.2,10.17792 0,0 13.68,20.78274 13.68,20.78274 0,0 5.55,10.67274 5.55,10.67274 0,0 10.05,15.9315 10.05,15.9315 0,0 10.8,18.99748 10.8,18.99748 0,0 14.11,22.31573 14.11,22.31573 0,0 11.73,25.22648 11.73,25.22648 0,0 3.92,6.79176 3.92,6.79176 0,0 10.09,22.1508 10.09,22.1508 0,0 5.57,10.83767 5.57,10.83767 0,0 7.61,18.2698 7.61,18.2698 0,0 6.23,12.77819 6.23,12.77819 0,0 3.77,8.73224 3.77,8.73224 3.05,5.59835 7.78,12.91405 6.77,19.40503 3.03,2.40622 5.69,10.82795 5,14.55368 0,0 4.79,9.70254 4.79,9.70254 0,0 9.21,25.22647 9.21,25.22647 0,0 3.03,10.67271 3.03,10.67271 0,0 5.46,14.55376 5.46,14.55376 0,0 2.19,8.73227 2.19,8.73227 0,0 8.39,23.29565 8.39,23.29565 0,0 5.82,27.15729 5.82,27.15729 0,0 7.45,30.07778 7.45,30.07778 0,0 2.17,12.61324 2.17,12.61324 0,0 8.74,35.89919 8.74,35.89919 0,0 1.79,15.524 1.79,15.524 0,0 4.68,23.286 4.68,23.286 0,0 3.28,15.524 3.28,15.524 -1.64,11.6624 2.45,21.2484 2.48,32.1055 0.01,6.1805 -0.54,18.9005 2.52,24.169 -1.67,12.1669 1.11,33.0175 1.77,45.6017 0,0 1.04,21.3455 1.04,21.3455 0,0 0,17.3771 0,17.3771 0,0 0.91,12.6133 0.91,12.6133 0,0 -1.04,5.9961 -1.04,5.9961 0,0 0,9.6152 0,9.6152 0,0 0,8.7322 0,8.7322 0,0 -0.6,5.5499 -0.6,5.5499 0,0 0.58,11.9146 0.58,11.9146 0,0 -1.07,6.7918 -1.07,6.7918 0,0 0,15.524 0,15.524 0,0 -0.71,8.7322 -0.71,8.7322 0,0 -1.09,13.5835 -1.09,13.5835 0.1,4.7445 -0.47,4.5602 -0.91,8.4606 0,0 0,7.0634 0,7.0634 0,0 -1.02,8.7322 -1.02,8.7322 0,0 -4.07,31.048 -4.07,31.048 0.09,6.4619 -1.97,10.4399 -2.74,16.4943 -0.58,4.5698 0.48,5.9088 -0.71,11.643 -1.28,6.1513 -3.4,12.1184 -3.22,18.4347 0.14,5.4237 -2.87,17.5324 -4.24,23.286 0,0 -8.46,36.8695 -8.46,36.8695 0,0 -12.09,54.3242 -12.09,54.3242 0,0 -3.66,8.7808 -3.66,8.7808 0,0 -4.18,17.3383 -4.18,17.3383 0,0 -3.36,6.9179 -3.36,6.9179 0,0 -3.37,13.4574 -3.37,13.4574 0,0 -3.22,6.9179 -3.22,6.9179 0,0 -1.47,6.7529 -1.47,6.7529 0,0 -2.54,7.0634 -2.54,7.0634 0,0 -1.78,8.4606 -1.78,8.4606 0,0 -3.09,6.7917 -3.09,6.7917 0,0 -2.08,7.4904 -2.08,7.4904 0,0 -2.72,5.1617 -2.72,5.1617 0,0 -1.67,5.6177 -1.67,5.6177 0,0 -2.54,5.1035 -2.54,5.1035 0,0 -6.11,17.2123 -6.11,17.2123 0,0 -2.71,5.1035 -2.71,5.1035 0,0 -5.67,14.3015 -5.67,14.3015 0,0 -2.3,4.2108 -2.3,4.2108 0,0 -8.03,17.3772 -8.03,17.3772 0,0 -9.38,21.3552 -9.38,21.3552 0,0 -3.83,9.3435 -3.83,9.3435 0,0 -5.85,10.2458 -5.85,10.2458 0,0 -12.48,23.9749 -12.48,23.9749 0,0 -8.54,14.6508 -8.54,14.6508 0,0 -9.12,19.3079 -9.12,19.3079 0,0 -12.67,19.8319 -12.67,19.8319 0,0 -3.25,6.9373 -3.25,6.9373 0,0 -10.98,17.872 -10.98,17.872 0,0 -5.21,9.2756 -5.21,9.2756 0,0 -23.15,31.9212 -23.15,31.9212 0,0 -9.69,15.4852 -9.69,15.4852 0,0 -8.73,10.304 -8.73,10.304 0,0 -8.35,10.7698 -8.35,10.7698 0,0 -8.23,10.8474 -8.23,10.8474 0,0 -3.47,5.7536 -3.47,5.7536 0,0 -19.42,22.7717 -19.42,22.7717 0,0 -6.48,9.8674 -6.48,9.8674 0,0 -11.45,13.6126 -11.45,13.6126 0,0 -9.8,9.4018 -9.8,9.4018 0,0 -13.4,15.6501 -13.4,15.6501 0,0 -11.9,11.1093 -11.9,11.1093 0,0 -13.04,14.2045 -13.04,14.2045 0,0 -12.45,12.7006 -12.45,12.7006 -3.27,2.8525 -9.75,8.6643 -10.96,12.6908 -6.28,3.5608 -4.32,3.425 -8.59,7.1314 0,0 -12.98,10.5369 -12.98,10.5369 0,0 -5.8,5.9185 -5.8,5.9185 0,0 -11.18,8.9748 -11.18,8.9748 0,0 -22.89,20.0648 -22.89,20.0648 0,0 -10.31,7.4127 -10.31,7.4127 0,0 -16.45,13.9424 -16.45,13.9424 0,0 -11.07,9.198 -11.07,9.198 0,0 -6.69,5.0065 -6.69,5.0065 -5.38,4.5311 -6.09,6.9955 -14.04,7.8687 -1.75,5.0162 -6.64,6.4231 -11,9.2368 0,0 -10.23,8.1404 -10.23,8.1404 0,0 -8.49,5.249 -8.49,5.249 0,0 -20.56,13.4477 -20.56,13.4477 0,0 -7.72,3.5802 -7.72,3.5802 0,0 -12.01,7.6359 -12.01,7.6359 0,0 -10.9,6.132 -10.9,6.132 -11.54,7.3544 -39.9,25.9153 -51.09,30.0195 -1.62,-6.0059 0.95,-11.5654 2.35,-17.4645 0,0 7.77,-33.9587 7.77,-33.9587 0,0 11.53,-50.453 11.53,-50.453 0,0 10.47,-39.7802 10.47,-39.7802 0,0 7.88,-33.9588 7.88,-33.9588 0,0 -13,8.1598 -13,8.1598 0,0 -10.96,6.0059 -10.96,6.0059 0,0 -27.04,16.8823 -27.04,16.8823 -5.14,3.066 -21.32,12.361 -24.11,16.5428 -2.44,3.6578 -3.92,11.0899 -4.89,15.4754 0,0 -5.6,25.2265 -5.6,25.2265 0,0 -8.98,38.81 -8.98,38.81 0,0 -13.67,55.3042 -13.67,55.3042 0,0 -5.1,20.3753 -5.1,20.3753 -0.67,2.8816 -1.53,8.0821 -3.09,10.4592 -1.96,2.9787 -5.98,3.59 -9.14,5.0939 0,0 -24.42,11.6138 -24.42,11.6138 0,0 -17,3.881 -17,3.881 -3.35,5.1424 -14.49,5.3558 -20,9.7025 -9.45,-0.3978 -24.2,9.5473 -32,8.7323 0,0 -14,6.7917 -14,6.7917 -8.52,0.6113 -21.47,5.9574 -30.04,8.4315 0,0 -15.92,3.6675 -15.92,3.6675 0,0 -6.21,2.5421 -6.21,2.5421 0,0 -14.83,4.2012 -14.83,4.2012 0,0 -21,4.4049 -21,4.4049 -9.49,2.8331 -29.49,9.1398 -39,7.8008 -2.56,2.7555 -3.93,1.3292 -7.28,2.0569 0,0 -6.72,2.0667 -6.72,2.0667 0,0 -9,0.9799 -9,0.9799 0,0 -15,1.6591 -15,1.6591 0,0 -14,2.61 -14,2.61 0,0 -23.58,2.3577 -23.58,2.3577 0,0 -12.42,2.3286 -12.42,2.3286 0,0 -21,2.2704 -21,2.2704 -4.17,0.3881 -6.44,-0.9896 -8,2.1054 0,0 -5,-3.881 -5,-3.881 -3.15,3.7355 -5.14,2.7459 -10,3.231 -6.7,0.6695 -17.72,2.251 -24,0.65 -2.35,2.4451 -3.79,1.3778 -7,1.5524 0,0 -8,1.1449 -8,1.1449 0,0 -23,0 -23,0 0,0 -1,-0.7568 -1,-0.7568 0,0 1,-1.9405 1,-1.9405 -2.66,1.6883 -4.4,3.4735 -7,0.9703 -5.93,2.4256 -20.77,2.6391 -27,0.9702 -2.42,2.3869 -3.69,1.1255 -6.83,1.0673 0,0 -5.25,0 -5.25,0 0,0 -9.01,0 -9.01,0 0,0 -27.91,-1.0673 -27.91,-1.0673 -7.89,0.1941 -16.15,-2.6584 -24,-0.9702 0,0 -3,-3.881 -3,-3.881 -4.92,3.0369 -10.62,1.5427 -16,0.9994 0,0 -7,0 -7,0 0,0 -9.83,-1.6301 -9.83,-1.6301 0,0 -5.26,0 -5.26,0 0,0 -9.91,-1.5815 -9.91,-1.5815 0,0 -8,0 -8,0 0,0 -14,-2.9495 -14,-2.9495 -4.32,-0.4463 -3.44,0.8053 -11,-0.6598 0,0 -17.91,-4.075 -17.91,-4.075 -5.77,-1.7271 -3.34,-3.0854 -12.09,-2.7167 -4.45,-3.3183 -17.96,-5.1133 -24,-6.5395 0,0 -43,-9.4697 -43,-9.4697 -7.86,-1.7367 -18.12,-5.3654 -26,-4.3661 -4.63,-3.7646 -5.83,-1.6591 -11,-2.4741 0,0 -17,-3.7549 -17,-3.7549 -10.63,-2.2898 -7.97,-2.7943 -15,-5.1811 0,0 -10.91,-2.6682 -10.91,-2.6682 0,0 -6.18,-2.9399 -6.18,-2.9399 0,0 -8.91,-2.3092 -8.91,-2.3092 0,0 -7,-2.9398 -7,-2.9398 -5.75,-2.3189 -15.29,-3.4153 -19,-8.7808 -4.24,2.3092 -5.16,-0.1552 -9,-1.9308 -5.3,-2.4547 -15.5,-3.2503 -19,-7.7717 0,0 -11,-2.7943 -11,-2.7943 0,0 -15,-5.8603 -15,-5.8603 0,0 -13.09,-6.1999 -13.09,-6.1999 0,0 -4.91,-0.6695 -4.91,-0.6695 -2.62,-4.0459 -4.59,-3.095 -8.58,-5.152 0,0 -8.58,-4.7348 -8.58,-4.7348 -6.82,-3.4056 -10.27,-3.3959 -15.84,-9.5181 0,0 -1,1.9405 -1,1.9405 0,0 -1,0 -1,0 0,0 -2,-4.8513 -2,-4.8513 0,0 -2,0.9703 -2,0.9703 0,0 0,0.9702 0,0.9702 0,0 -23.58,-10.925 -23.58,-10.925 0,0 -13.42,-7.7814 -13.42,-7.7814 -3.81,-1.9599 -12.93,-5.4334 -14,-9.4308 -5.47,-0.883 -10.27,-2.872 -13,-7.762 0,0 -3,0.9702 -3,0.9702 -3.6,-3.5123 -9.82,-7.0052 -15,-6.7917 -2.59,-4.5602 -8.89,-8.3248 -14,-9.7025 0,0 0,-2.9108 0,-2.9108 -5.56,-0.8732 -9.2,-4.6475 -13.96,-7.5679 0,0 -24.43,-14.971 -24.43,-14.971 0,0 -8.77,-6.3163 -8.77,-6.3163 -5.78,-3.066 -15.53,-6.8985 -16.84,-13.8357 0,0 -4,0.9702 -4,0.9702 0,0 -23.54,-17.7458 -23.54,-17.7458 0,0 -13.55,-12.3222 -13.55,-12.3222 0,0 -17.27,-12.8461 -17.27,-12.8461 0,0 -18.64,-15.3009 -18.64,-15.3009 0,0 1,-1.9404 1,-1.9404 0,0 -19,-13.5835 -19,-13.5835 -0.96,-3.1048 -2.89,-3.4735 -6,-3.881 0,0 -1,-5.8215 -1,-5.8215 -7.89,-2.6876 -18.89,-16.3584 -25.49,-22.1508 0,0 -31.23,-30.0681 -31.23,-30.0681 0,0 -7.23,-6.9858 -7.23,-6.9858 0,0 -6.07,-7.2477 -6.07,-7.2477 0,0 -8.55,-8.5673 -8.55,-8.5673 0,0 -18.36,-21.2485 -18.36,-21.2485 -3.52,-4.2594 -6.65,-8.9845 -11.07,-12.3998 -0.84,-4.2885 -5.67,-7.5485 -8.33,-10.9444 0,0 -4.12,-6.2387 -4.12,-6.2387 0,0 -11.91,-14.6411 -11.91,-14.6411 0,0 -12.16,-16.5136 -12.16,-16.5136 0,0 -5.43,-6.1708 -5.43,-6.1708 0,0 -4.9,-7.3351 -4.9,-7.3351 0,0 -4.8,-5.5692 -4.8,-5.5692 0,0 -6.59,-10.11 -6.59,-10.11 0,0 -6.15,-6.9858 -6.15,-6.9858 0,0 -17.21,-27.0312 -17.21,-27.0312 0,0 -16,-25.2652 -16,-25.2652 -2.51,-4.0557 -6.25,-7.8009 -5.4,-12.6133 -5.76,-4.0459 -8.74,-12.7685 -11.83,-18.7161 0,0 -6.37,-10.304 -6.37,-10.304 -7.03,-10.6728 -11.61,-19.764 -17.19,-31.1354 0,0 -12.07,-23.2859 -12.07,-23.2859 0,0 -2.9,-7.762 -2.9,-7.762 0,0 -7.99,-16.6592 -7.99,-16.6592 0,0 -10.02,-23.9264 -10.02,-23.9264 0,0 -10.49,-22.4807 -10.49,-22.4807 0,0 -2.01,-5.8214 -2.01,-5.8214 -2.19,-5.2782 -5.77,-9.6831 -5.13,-15.524 -3.31,-2.4839 -3.34,-5.9089 -4.38,-9.7025 -1.78,-6.5104 -7.33,-15.9315 -6.62,-22.3158 0,0 -2,0 -2,0 0,0 1,-3.881 1,-3.881 -3.85,-2.4741 -3.41,-5.511 -4.65,-9.6928 -2.08,-7.0343 -9.44,-22.9561 -8.35,-29.1171 -3.36,-2.8138 -2.23,-6.3358 -3.54,-10.11 -3.23,-9.295 -4.13,-7.2575 -7.23,-19.9678 -1.43,-5.8797 -2.47,-15.8247 -6.23,-20.3752 0.24,-3.8616 0.45,-5.5401 -2,-8.7323 0,0 1,-3.881 1,-3.881 0,0 -1,-3.881 -1,-3.881 0,0 -4,-3.881 -4,-3.881 0,0 2,-4.8512 2,-4.8512 -2.66,-2.2898 -2.25,-5.5013 -2.53,-8.7419 -0.49,-5.579 -2.61,-11.9535 -1.47,-17.4548 -2.81,-2.348 -3.14,-8.7032 -4.4,-12.6521 -3.07,-9.6443 -5.07,-22.8106 -6.06,-32.9497 -0.56,-5.7244 -1.88,-6.7529 -0.54,-12.6132 0,0 -1,-3.881 -1,-3.881 0,0 -2.58,-9.7025 -2.58,-9.7025 0,0 -5.42,-32.0182 -5.42,-32.0182 0,0 4,-3.881 4,-3.881 -3.81,-2.4451 -3.87,-6.4619 -4.33,-10.6728 0,0 -1.24,-8.8972 -1.24,-8.8972 -0.57,-5.152 0.42,-10.7406 -2.43,-15.359 0.66,-4.0751 1.09,-9.9354 -1,-13.5835 1.1,-4.3273 2.56,-9.2853 1,-13.5835 0,0 2,0.9703 2,0.9703 -0.91,-3.7646 -1.35,-4.5214 1,-7.762 -3.86,-2.5906 -2.27,-4.8901 -1,-8.7323 -2.63,-2.3771 -1.88,-8.2083 -1.87,-11.643 0,0 -1.54,-26.1967 -1.54,-26.1967 0,0 0,-5.414 0,-5.414 0,0 0,-11.0803 0,-11.0803 0,0 0,-9.6927 0,-9.6927 0,0 1.9,-23.2957 1.9,-23.2957 0,0 0,-6.7918 0,-6.7918 0,0 0.84,-21.3455 0.84,-21.3455 0,0 0,-5.8215 0,-5.8215 0,0 1.2,-7.762 1.2,-7.762 0,0 0.68,-18.4347 0.68,-18.4347 0,0 1.16,-6.7917 1.16,-6.7917 0.75,-8.9166 -0.72,-8.4218 2.97,-18.4348 -3.5,-3.0175 -0.21,-8.7613 0,-12.6132 0,0 0,-7.762 0,-7.762 0,0 3.41,-15.524 3.41,-15.524 0,0 0,-4.8513 0,-4.8513 0,0 4.21,-19.4049 4.21,-19.4049 0,0 0.62,-6.6269 0.62,-6.6269 0.61,-2.086 1.91,-3.0465 2.98,-6.9663 0,0 10.02,-43.65157 10.02,-43.65157 0,0 7.07,-31.04796 7.07,-31.04796 0,0 4.12,-17.42567 4.12,-17.42567 0.83,-4.82221 -0.52,-5.12298 0,-8.78076 0,0 6.93,-27.15729 6.93,-27.15729 0,0 3.17,-7.76201 3.17,-7.76201 0,0 2.52,-10.67272 2.52,-10.67272 0,0 3.61,-8.73227 3.61,-8.73227 0,0 2.69,-10.58544 2.69,-10.58544 1.63,-5.18116 3.5,-4.13324 5.31,-16.58155 0,0 3,0 3,0 0.57,-12.06988 2.66,-10.76976 4.68,-16.53307 0,0 1.44,-4.72508 1.44,-4.72508 0,0 2.9,-5.99612 2.9,-5.99612 0,0 1.64,-5.56928 1.64,-5.56928 0,0 2.66,-5.10351 2.66,-5.10351 0,0 1.53,-5.56921 1.53,-5.56921 0,0 3.04,-6.01558 3.04,-6.01558 0,0 3.6,-7.89781 3.6,-7.89781 1.91,-4.87065 1.11,-8.11128 6.51,-11.47806 -0.69,-4.55046 0.88,-6.42304 2.52,-10.67273 2.29,-5.89912 9.08,-20.20059 9.48,-25.22649 0,0 3,0 3,0 0.59,-5.0162 4.22,-11.10935 6.74,-15.61132 0,0 5.05,-10.30404 5.05,-10.30404 0,0 6.71,-11.92436 6.71,-11.92436 2.14,-4.16237 4.56,-11.10936 8.5,-13.5835 0,0 -1,-2.91075 -1,-2.91075 0,0 9.11,-18.84224 9.11,-18.84224 0,0 22.14,-34.79314 22.14,-34.79314 0,0 5.54,-10.96383 5.54,-10.96383 0,0 4.55,-6.22899 4.55,-6.22899 0,0 7.17,-11.60419 7.17,-11.60419 0,0 15.17,-20.66631 15.17,-20.66631 0,0 4.81,-8.60612 4.81,-8.60612 0,0 10.12,-14.44702 10.12,-14.44702 0,0 6.96,-7.54854 6.96,-7.54854 0,0 4.25,-6.34543 4.25,-6.34543 3.78,-5.21023 6.73,-6.52977 8.18,-13.2536 3.87,-1.1837 6.52,-8.1404 8.79,-11.40043 5.86,-8.44117 20.86,-22.71354 24.21,-30.32029 3.15,-0.97026 6.68,-6.48127 8.99,-9.13976 0,0 20.46,-22.72324 20.46,-22.72324 0,0 8.56,-9.12034 8.56,-9.12034 0,0 6.29,-5.74388 6.29,-5.74388 0,0 10.2,-11.78853 10.2,-11.78853 0,0 20.2,-20.22 20.2,-20.22 0,0 7.91,-8.62551 7.91,-8.62551 0,0 20.97,-19.0363 20.97,-19.0363 0,0 5.96,-4.63779 5.96,-4.63779 0,0 22.74,-20.16178 22.74,-20.16178 3.76,-3.06599 5.71,-5.87972 10.72,-6.57829 1.52,-4.44376 7.16,-7.72319 10.67,-11.14817 0,0 16.07,-12.99164 16.07,-12.99164 0,0 4.51,-4.22059 4.51,-4.22059 0,0 14.54,-11.08995 14.54,-11.08995 0,0 4.58,-4.26909 4.58,-4.26909 0,0 13.63,-8.5576 13.63,-8.5576 0,0 8.23,-6.70443 8.23,-6.70443 0,0 15.68,-9.99357 15.68,-9.99357 0,0 7.13,-5.8312 7.13,-5.8312 0,0 60.96,-38.26663 60.96,-38.26663 0,0 8.99,-4.36613 8.99,-4.36613 0,0 15.01,-9.23677 15.01,-9.23677 0,0 28,-11.99229 28,-11.99229 0,0 44,-23.11134 44,-23.11134 0,0 9.58,-4.90946 9.58,-4.90946 3.09,-1.19341 13.97,-7.73289 16.6,-5.88941 2.38,1.43597 0.28,7.45151 0,9.57636 0,0 -4.5,17.46449 -4.5,17.46449 -1.93,6.15138 -2.07,3.73546 -4.1,12.61324 0,0 -6,24.25624 -6,24.25624 0,0 -4.19,12.61324 -4.19,12.61324 0,0 -5.71,22.31574 -5.71,22.31574 0,0 -3.14,7.76199 -3.14,7.76199 0,0 -5.97,25.18768 -5.97,25.18768 0,0 -2.46,6.91788 -2.46,6.91788 0,0 -0.97,5.73417 -0.97,5.73417 0,0 -2.6,6.79175 -2.6,6.79175 0,0 -4.54,17.46449 -4.54,17.46449 0,0 31,-17.38687 31,-17.38687 0,0 21,-12.39009 21,-12.39009 5.66,-3.01747 20.97,-10.1294 24.07,-14.94184 1.91,-2.96896 2.77,-9.86744 3.86,-13.49617 0,0 2.58,-6.79175 2.58,-6.79175 0,0 0.98,-5.82149 0.98,-5.82149 0,0 2.19,-5.8215 2.19,-5.8215 0,0 2.74,-11.64299 2.74,-11.64299 0,0 9.43,-32.98848 9.43,-32.98848 0,0 5.64,-23.28599 5.64,-23.28599 0,0 4.96,-15.52399 4.96,-15.52399 0,0 3.72,-14.55374 3.72,-14.55374 0,0 3.15,-8.73225 3.15,-8.73225 0.92,-4.22058 2.27,-12.71997 5.38,-15.86358 2.17,-2.19276 18.41,-6.97609 22.3,-8.04336 0,0 8,-2.94956 8,-2.94956 0,0 8,-2.21217 8,-2.21217 0,0 8.92,-3.15331 8.92,-3.15331 0,0 22.08,-5.92823 22.08,-5.92823 0,0 33,-9.06213 33,-9.06213 5.88,-1.40686 11.87,-4.05564 18,-3.24063 2.32,-2.54205 11.38,-4.482551 15,-5.365475 0,0 16,-2.842832 16,-2.842832 0,0 16,-3.522008 16,-3.522008 6.67,-1.251618 8.97,-3.357062 16,-1.853177 0,0 1,-2.910744 1,-2.910744 0,0 1,0 1,0 0,0 2,1.940499 2,1.940499 0,0 1,-2.910752 1,-2.910752 7.93,1.87258 14.73,0.194052 22.61,-0.68888 6.66,-0.737389 12.42,-0.844112 18.39,-4.16237 6.45,1.581509 11.6,-0.232856 18,-0.698577 0,0 24.01,-1.785258 24.01,-1.785258 6.97,-0.824713 14.86,-2.687592 21.9,-2.44503 0,0 16.09,-1.649424 16.09,-1.649424 0,0 29.83,0 29.83,0 0,0 40.17,-1.610613 40.17,-1.610613 0,0 12,0 12,0 0,0 41,1.853175 41,1.853175 0,0 6,0 6,0 0,0 16,1.115787 16,1.115787 0,0 6,0 6,0 0,0 6,0.717986 6,0.717986 0,0 6,0 6,0 0,0 7,1.038166 7,1.038166 0,0 7,0 7,0 0,0 10,1.862877 10,1.862877 0,0 7,0 7,0 0,0 9,1.649428 9,1.649428 0,0 7,0 7,0 0,0 31,6.335725 31,6.335725 0,0 62,13.767847 62,13.767847 0,0 73,16.08673 73,16.08673 0,0 24,5.8409 24,5.8409 0,0 10.96,2.48384 10.96,2.48384 0,0 8.08,3.4929 8.08,3.4929 0,0 8.79,2.21217 8.79,2.21217 0,0 6.21,2.96896 6.21,2.96896 0,0 7.87,2.07633 7.87,2.07633 0,0 6.18,2.90105 6.18,2.90105 0,0 17.91,6.48127 17.91,6.48127 0,0 6,2.76521 6,2.76521 0,0 6,1.79496 6,1.79496 0,0 23,9.86744 23,9.86744 0,0 30,12.14752 30,12.14752 0,0 44.99,22.52919 44.99,22.52919 0,0 22.01,10.68245 22.01,10.68245 0,0 24.17,13.87456 24.17,13.87456 0,0 12.86,7.55825 12.86,7.55825 0,0 18.97,10.81828 18.97,10.81828 4.2,2.25098 11.25,5.68566 13,10.14881 z M 1112,75.446597 c 0,0 0,0.970249 0,0.970249 0,0 -1,-0.970249 -1,-0.970249 0,0 1,0 1,0 z M 951,100.67308 c 0,0 0,0.97025 0,0.97025 0,0 -1,-0.97025 -1,-0.97025 0,0 1,0 1,0 z m -258,24.25624 c 0,0 0,0.97025 0,0.97025 0,0 -1,-0.97025 -1,-0.97025 0,0 1,0 1,0 z m 1049,69.85796 c 0,0 0,0.97025 0,0.97025 0,0 -1,-0.97025 -1,-0.97025 0,0 1,0 1,0 z M 646,219.04351 c 0,0 0,0.97025 0,0.97025 0,0 -1,-0.97025 -1,-0.97025 0,0 1,0 1,0 z m 1166,19.40499 c 0,0 0,0.97025 0,0.97025 0,0 -1,-0.97025 -1,-0.97025 0,0 1,0 1,0 z m -1306,2.91075 c 0,0 0,0.97025 0,0.97025 0,0 -1,-0.97025 -1,-0.97025 0,0 1,0 1,0 z m 1422,71.79846 c 0,0 0,0.97025 0,0.97025 0,0 -1,-0.97025 -1,-0.97025 0,0 1,0 1,0 z m -6,0.97025 c 0,0 0,0.97025 0,0.97025 0,0 -1,-0.97025 -1,-0.97025 0,0 1,0 1,0 z M 383,336.4437 c 0,0 0,0.97024 0,0.97024 0,0 -1,-0.97024 -1,-0.97024 0,0 1,0 1,0 z m -16,16.49424 c 0,0 0,0.97025 0,0.97025 0,0 -1,-0.97025 -1,-0.97025 0,0 1,0 1,0 z m 1,5.82149 c 0,0 0,0.97025 0,0.97025 0,0 -1,-0.97025 -1,-0.97025 0,0 1,0 1,0 z m 67,19.40499 c 0,0 0,0.97025 0,0.97025 0,0 -1,-0.97025 -1,-0.97025 0,0 1,0 1,0 z m 1567,4.85125 c 0,0 0,0.97025 0,0.97025 0,0 -1,-0.97025 -1,-0.97025 0,0 1,0 1,0 z m -1590,9.7025 c 0,0 0,0.97024 0,0.97024 0,0 -1,-0.97024 -1,-0.97024 0,0 1,0 1,0 z m 1754,67.91746 c 0,0 0,0.97025 0,0.97025 0,0 -1,-0.97025 -1,-0.97025 0,0 1,0 1,0 z M 346,475.18937 c 0,0 0,0.97025 0,0.97025 0,0 -1,-0.97025 -1,-0.97025 0,0 1,0 1,0 z m -6,7.76199 c 0,0 0,0.97025 0,0.97025 0,0 -1,-0.97025 -1,-0.97025 0,0 1,0 1,0 z m -5,4.85125 c 0,0 0,0.97025 0,0.97025 0,0 -1,-0.97025 -1,-0.97025 0,0 1,0 1,0 z m -26,35.89923 c 0,0 0,0.97025 0,0.97025 0,0 -1,-0.97025 -1,-0.97025 0,0 1,0 1,0 z m 1904,0.97025 c 0,0 0,0.97025 0,0.97025 0,0 -1,-0.97025 -1,-0.97025 0,0 1,0 1,0 z m -1909,1.9405 c 0,0 0,0.97025 0,0.97025 0,0 -1,-0.97025 -1,-0.97025 0,0 1,0 1,0 z m 1835,9.70249 c 0,0 0,0.97024 0,0.97024 0,0 -1,-0.97024 -1,-0.97024 0,0 1,0 1,0 z M 207,675.06075 c 0,0 0,0.97025 0,0.97025 0,0 -1,-0.97025 -1,-0.97025 0,0 1,0 1,0 z m 2023,15.52398 c 0,0 0,0.97026 0,0.97026 0,0 -1,-0.97026 -1,-0.97026 0,0 1,0 1,0 z m 121,105.75717 c 0,0 0,0.97026 0,0.97026 0,0 -1,-0.97026 -1,-0.97026 0,0 1,0 1,0 z m -69,14.55375 c 0,0 0,0.97026 0,0.97026 0,0 -1,-0.97026 -1,-0.97026 0,0 1,0 1,0 z m 97,66.94723 c 0,0 0,0.97026 0,0.97026 0,0 -1,-0.97026 -1,-0.97026 0,0 1,0 1,0 z m 24,103.81667 c 0,0 0,0.97026 0,0.97026 0,0 -1,-0.97026 -1,-0.97026 0,0 1,0 1,0 z m -67,32.98855 c 0,0 0,0.9702 0,0.9702 0,0 -1,-0.9702 -1,-0.9702 0,0 1,0 1,0 z M 0,1165.0367 c 0,0 0,0.9703 0,0.9703 0,0 1,-0.9703 1,-0.9703 0,0 -1,0 -1,0 z m 79,22.3158 c 0,0 0,0.9702 0,0.9702 0,0 1,-0.9702 1,-0.9702 0,0 -1,0 -1,0 z m 6,192.1094 c 0,0 0,0.9702 0,0.9702 0,0 -1,-0.9702 -1,-0.9702 0,0 1,0 1,0 z m -59,65.9769 c 0,0 0,0.9703 0,0.9703 0,0 -1,-0.9703 -1,-0.9703 0,0 1,0 1,0 z m 81,57.2447 c 0,0 0,0.9703 0,0.9703 0,0 -1,-0.9703 -1,-0.9703 0,0 1,0 1,0 z m 12,28.1373 c 0,0 0,0.9702 0,0.9702 0,0 -1,-0.9702 -1,-0.9702 0,0 1,0 1,0 z m 23,90.2332 c 0,0 0,0.9702 0,0.9702 0,0 -1,-0.9702 -1,-0.9702 0,0 1,0 1,0 z m 3,32.0182 c 0,0 0,0.9702 0,0.9702 0,0 -1,-0.9702 -1,-0.9702 0,0 1,0 1,0 z m 24,17.4645 c 0,0 0,0.9702 0,0.9702 0,0 -1,-0.9702 -1,-0.9702 0,0 1,0 1,0 z m -54,25.2265 c 0,0 0,0.9702 0,0.9702 0,0 -1,-0.9702 -1,-0.9702 0,0 1,0 1,0 z m 68,9.7025 c 0,0 0,0.9702 0,0.9702 0,0 -1,-0.9702 -1,-0.9702 0,0 1,0 1,0 z m 13,30.0777 c 0,0 0,0.9702 0,0.9702 0,0 -1,-0.9702 -1,-0.9702 0,0 1,0 1,0 z m 10,16.4942 c 0,0 0,0.9703 0,0.9703 0,0 -1,-0.9703 -1,-0.9703 0,0 1,0 1,0 z m 0,9.7025 c 0,0 0,0.9703 0,0.9703 0,0 -1,-0.9703 -1,-0.9703 0,0 1,0 1,0 z m -66,10.6728 c 0,0 0,0.9702 0,0.9702 0,0 -1,-0.9702 -1,-0.9702 0,0 1,0 1,0 z m 8,17.4645 c 0,0 0,0.9702 0,0.9702 0,0 -1,-0.9702 -1,-0.9702 0,0 1,0 1,0 z m 3,4.8512 c 0,0 0,0.9703 0,0.9703 0,0 -1,-0.9703 -1,-0.9703 0,0 1,0 1,0 z m 3,4.8513 c 0,0 0,0.9702 0,0.9702 0,0 -1,-0.9702 -1,-0.9702 0,0 1,0 1,0 z m 96,23.2859 c 0,0 0,0.9703 0,0.9703 0,0 -1,-0.9703 -1,-0.9703 0,0 1,0 1,0 z m -72,21.3455 c 0,0 0,0.9703 0,0.9703 0,0 -1,-0.9703 -1,-0.9703 0,0 1,0 1,0 z m 9,11.643 c 0,0 0,0.9703 0,0.9703 0,0 -1,-0.9703 -1,-0.9703 0,0 1,0 1,0 z m 107,35.8993 c 0,0 0,0.9702 0,0.9702 0,0 -1,-0.9702 -1,-0.9702 0,0 1,0 1,0 z m 1828,3.881 c 0,0 0,0.9702 0,0.9702 0,0 -1,-0.9702 -1,-0.9702 0,0 1,0 1,0 z m -1815,10.6727 c 0,0 0,0.9702 0,0.9702 0,0 -1,-0.9702 -1,-0.9702 0,0 1,0 1,0 z m 7,21.3455 c 0,0 0,0.9702 0,0.9702 0,0 -1,-0.9702 -1,-0.9702 0,0 1,0 1,0 z m -64,19.405 c 0,0 0,0.9702 0,0.9702 0,0 -1,-0.9702 -1,-0.9702 0,0 1,0 1,0 z m 25,31.048 c 0,0 0,0.9702 0,0.9702 0,0 -1,-0.9702 -1,-0.9702 0,0 1,0 1,0 z m 131,43.6612 c 0,0 0,0.9702 0,0.9702 0,0 -1,-0.9702 -1,-0.9702 0,0 1,0 1,0 z m 65,57.2447 c 0,0 0,0.9703 0,0.9703 0,0 -1,-0.9703 -1,-0.9703 0,0 1,0 1,0 z m -1,3.881 c 0,0 0,0.9702 0,0.9702 0,0 -1,-0.9702 -1,-0.9702 0,0 1,0 1,0 z m -89,7.762 c 0,0 0,0.9702 0,0.9702 0,0 -1,-0.9702 -1,-0.9702 0,0 1,0 1,0 z m 1656,5.8215 c 0,0 0,0.9702 0,0.9702 0,0 -1,-0.9702 -1,-0.9702 0,0 1,0 1,0 z m -1612,35.8992 c 0,0 0,0.9703 0,0.9703 0,0 -1,-0.9703 -1,-0.9703 0,0 1,0 1,0 z m 8,9.7025 c 0,0 0,0.9703 0,0.9703 0,0 -1,-0.9703 -1,-0.9703 0,0 1,0 1,0 z m 9,5.8215 c 0,0 0,0.9703 0,0.9703 0,0 -1,-0.9703 -1,-0.9703 0,0 1,0 1,0 z m 3,2.9108 c 0,0 0,0.9702 0,0.9702 0,0 -1,-0.9702 -1,-0.9702 0,0 1,0 1,0 z m 1519,5.8215 c 0,0 0,0.9702 0,0.9702 0,0 -1,-0.9702 -1,-0.9702 0,0 1,0 1,0 z m -1497,12.6132 c 0,0 0,0.9702 0,0.9702 0,0 -1,-0.9702 -1,-0.9702 0,0 1,0 1,0 z m 1373,0 c 0,0 0,0.9702 0,0.9702 0,0 -1,-0.9702 -1,-0.9702 0,0 1,0 1,0 z m 66,32.0182 c 0,0 0,0.9703 0,0.9703 0,0 -1,-0.9703 -1,-0.9703 0,0 1,0 1,0 z m -163,9.7025 c 0,0 0,0.9703 0,0.9703 0,0 -1,-0.9703 -1,-0.9703 0,0 1,0 1,0 z m 126,15.524 c 0,0 0,0.9703 0,0.9703 0,0 -1,-0.9703 -1,-0.9703 0,0 1,0 1,0 z m -994,76.6497 c 0,0 0,0.9703 0,0.9703 0,0 -1,-0.9703 -1,-0.9703 0,0 1,0 1,0 z m 669,3.881 c 0,0 0,0.9703 0,0.9703 0,0 -1,-0.9703 -1,-0.9703 0,0 1,0 1,0 z m 144,14.5538 c 0,0 0,0.9702 0,0.9702 0,0 -1,-0.9702 -1,-0.9702 0,0 1,0 1,0 z m 244,3.881 c 0,0 0,0.9702 0,0.9702 0,0 -1,-0.9702 -1,-0.9702 0,0 1,0 1,0 z m -308,23.2859 c 0,0 0,0.9703 0,0.9703 0,0 -1,-0.9703 -1,-0.9703 0,0 1,0 1,0 z m -4,2.9108 c 0,0 0,0.9702 0,0.9702 0,0 -1,-0.9702 -1,-0.9702 0,0 1,0 1,0 z m -162,44.6315 c 0,0 0,0.9702 0,0.9702 0,0 -1,-0.9702 -1,-0.9702 0,0 1,0 1,0 z"
     style="display:inline;fill:#ffffff;stroke:none"
     inkscape:label="orig" />
</svg>
