<svg width="106" height="122" viewBox="0 0 106 122" fill="none" xmlns="http://www.w3.org/2000/svg">
<path d="M44.8322 110.292L48.5809 114.457L48.8493 114.756L67.5514 114.108L70.5125 109.849" stroke="white" stroke-width="2.5" stroke-linecap="round" stroke-linejoin="round"/>
<path d="M76.5809 78.3098L80.41 20.5129L80.0549 20.2597L56.0016 2.75802L55.5866 3.14668L55.8063 2.96504L30.9383 23.8218L36.5357 57.3263" stroke="white" stroke-width="2.5" stroke-linecap="round" stroke-linejoin="round"/>
<path d="M48.5817 114.462L48.0889 104.933" stroke="white" stroke-width="2.5" stroke-linecap="round" stroke-linejoin="round"/>
<path d="M47.8979 101.205L44.0916 27.525L66.1331 27.9098" stroke="white" stroke-width="2.5" stroke-linecap="round" stroke-linejoin="round"/>
<path d="M67.2821 113.811L67.1831 106.401" stroke="white" stroke-width="2.5" stroke-linecap="round" stroke-linejoin="round"/>
<path d="M67.3892 99.4965L67.2113 92.9774L67.1624 89.3538L67.1123 85.598L66.5097 40.6762L66.3406 28.1413L80.2616 20.4939L80.3467 20.4472" stroke="white" stroke-width="2.5" stroke-linecap="round" stroke-linejoin="round"/>
<path d="M30.9386 23.8208L44.0955 27.5244L55.9958 2.97369L66.1346 27.9081" stroke="white" stroke-width="3" stroke-linecap="round" stroke-linejoin="round"/>
<path d="M76.79 29.1941L66.432 34.6915" stroke="white" stroke-width="1.5" stroke-linecap="round" stroke-linejoin="round"/>
<path d="M76.8326 34.4408L66.568 40.2912" stroke="white" stroke-width="1.5" stroke-linecap="round" stroke-linejoin="round"/>
<path d="M76.2338 40.8323L66.5884 46.271" stroke="white" stroke-width="1.5" stroke-linecap="round" stroke-linejoin="round"/>
<path d="M75.5536 46.4932L66.6617 51.446" stroke="white" stroke-width="1.5" stroke-linecap="round" stroke-linejoin="round"/>
<path d="M73.5496 54.1408L66.841 57.6659" stroke="white" stroke-width="1.5" stroke-linecap="round" stroke-linejoin="round"/>
<path d="M73.1171 59.6945L66.9148 62.8861" stroke="white" stroke-width="1.5" stroke-linecap="round" stroke-linejoin="round"/>
<path d="M72.7213 64.6438L66.8607 67.4655" stroke="white" stroke-width="1.5" stroke-linecap="round" stroke-linejoin="round"/>
<path d="M72.4854 68.8743L67.0205 72.0849" stroke="white" stroke-width="1.5" stroke-linecap="round" stroke-linejoin="round"/>
<path d="M72.3549 73.3524L66.9874 76.3559" stroke="white" stroke-width="1.5" stroke-linecap="round" stroke-linejoin="round"/>
<path d="M71.9932 77.6978L67.1457 80.2452" stroke="white" stroke-width="1.5" stroke-linecap="round" stroke-linejoin="round"/>
<path d="M71.7372 82.2894L67.2079 85.1684" stroke="white" stroke-width="1.5" stroke-linecap="round" stroke-linejoin="round"/>
<path d="M71.5017 86.5202L67.3687 88.8812" stroke="white" stroke-width="1.5" stroke-linecap="round" stroke-linejoin="round"/>
<path d="M70.4042 90.4263L67.2983 92.5397" stroke="white" stroke-width="1.5" stroke-linecap="round" stroke-linejoin="round"/>
<path d="M48.6448 104.072L48.0919 104.933L40.2559 117.154L25.6606 117.587L2.8412 68.0609L14.3158 45.4645L36.6411 57.9252L47.8994 101.206L47.8993 101.208L48.6448 104.072Z" stroke="white" stroke-width="2.5" stroke-linecap="round" stroke-linejoin="round"/>
<path d="M3.05051 68.3736L22.8318 69.9104L36.559 58.1369" stroke="white" stroke-width="2.5" stroke-linecap="round" stroke-linejoin="round"/>
<path d="M14.377 45.6509L22.7552 69.4812L24.1963 73.3645L40.23 116.95" stroke="white" stroke-width="2.5" stroke-linecap="round" stroke-linejoin="round"/>
<path d="M33.0228 66.677L24.7124 74.1153" stroke="white" stroke-width="1.5" stroke-linecap="round" stroke-linejoin="round"/>
<path d="M33.7111 71.0235L26.3773 77.975" stroke="white" stroke-width="1.5" stroke-linecap="round" stroke-linejoin="round"/>
<path d="M34.4684 76.1428L27.6338 83.6635" stroke="white" stroke-width="1.5" stroke-linecap="round" stroke-linejoin="round"/>
<path d="M36.3104 83.0296L30.2213 89.6418" stroke="white" stroke-width="1.5" stroke-linecap="round" stroke-linejoin="round"/>
<path d="M37.7452 88.1808L31.9769 94.2795" stroke="white" stroke-width="1.5" stroke-linecap="round" stroke-linejoin="round"/>
<path d="M39.8158 93.4504L34.1111 100.493" stroke="white" stroke-width="1.5" stroke-linecap="round" stroke-linejoin="round"/>
<path d="M41.1591 97.7569L35.391 103.854" stroke="white" stroke-width="1.5" stroke-linecap="round" stroke-linejoin="round"/>
<path d="M42.4154 101.778L37.0841 108.889" stroke="white" stroke-width="1.5" stroke-linecap="round" stroke-linejoin="round"/>
<path d="M101.298 82.3015L83.2375 110.446L72.4816 111.882L70.5134 109.846L70.3949 109.723L67.1829 106.4L65.4225 104.58L67.1048 100.618L76.0976 79.4388L76.576 78.3124L80.2471 69.6649L97.2599 64.9895L101.298 82.3015Z" stroke="white" stroke-width="2.5" stroke-linecap="round" stroke-linejoin="round"/>
<path d="M80.1841 69.9182L88.6573 80.8092L101.151 82.3572" stroke="white" stroke-width="2.5" stroke-linecap="round" stroke-linejoin="round"/>
<path d="M97.1938 65.1088L88.8421 80.5699L87.5162 83.1281L72.5749 111.774" stroke="white" stroke-width="2.5" stroke-linecap="round" stroke-linejoin="round"/>
<path d="M93.6431 86.7719L86.0332 86.0381" stroke="white" stroke-width="1.5" stroke-linecap="round" stroke-linejoin="round"/>
<path d="M91.0743 89.8222L84.397 89.3943" stroke="white" stroke-width="1.5" stroke-linecap="round" stroke-linejoin="round"/>
<path d="M89.1687 93.7091L82.2752 93.4336" stroke="white" stroke-width="1.5" stroke-linecap="round" stroke-linejoin="round"/>
<path d="M86.4723 97.5327L80.3165 97.3618" stroke="white" stroke-width="1.5" stroke-linecap="round" stroke-linejoin="round"/>
<path d="M84.9941 101.29L78.3051 101.102" stroke="white" stroke-width="1.5" stroke-linecap="round" stroke-linejoin="round"/>
<path d="M83.5478 104.616L76.2745 104.683" stroke="white" stroke-width="1.5" stroke-linecap="round" stroke-linejoin="round"/>
<path d="M81.482 107.665L74.8055 107.779" stroke="white" stroke-width="1.5" stroke-linecap="round" stroke-linejoin="round"/>
</svg>
