<svg width="113" height="113" viewBox="0 0 113 113" fill="none" xmlns="http://www.w3.org/2000/svg">
<path d="M56.5885 111.43C86.6857 111.43 111.084 87.0076 111.084 56.8808C111.084 26.7541 86.6857 2.33154 56.5885 2.33154C26.4914 2.33154 2.09277 26.7541 2.09277 56.8808C2.09277 87.0076 26.4914 111.43 56.5885 111.43Z" stroke="white" stroke-width="3" stroke-linecap="round" stroke-linejoin="round"/>
<path d="M24.3894 93.6924C26.1329 93.6924 27.5463 92.2776 27.5463 90.5324C27.5463 88.7871 26.1329 87.3723 24.3894 87.3723C22.6458 87.3723 21.2324 88.7871 21.2324 90.5324C21.2324 92.2776 22.6458 93.6924 24.3894 93.6924Z" fill="white"/>
<path d="M95.657 79.3322C96.9829 79.3322 98.0578 78.2573 98.0578 76.9315C98.0578 75.6056 96.9829 74.5308 95.657 74.5308C94.3312 74.5308 93.2563 75.6056 93.2563 76.9315C93.2563 78.2573 94.3312 79.3322 95.657 79.3322Z" fill="white"/>
<path d="M55.3761 12.3003C56.9511 12.3003 58.2278 11.0236 58.2278 9.44862C58.2278 7.87367 56.9511 6.59692 55.3761 6.59692C53.8012 6.59692 52.5244 7.87367 52.5244 9.44862C52.5244 11.0236 53.8012 12.3003 55.3761 12.3003Z" fill="white"/>
<path d="M30.4691 55.2927C37.5997 55.2927 43.3801 49.5066 43.3801 42.369C43.3801 35.2315 37.5997 29.4453 30.4691 29.4453C23.3386 29.4453 17.5581 35.2315 17.5581 42.369C17.5581 49.5066 23.3386 55.2927 30.4691 55.2927Z" stroke="white" stroke-width="3" stroke-linecap="round" stroke-linejoin="round"/>
<path d="M65.6666 78.9625C68.364 78.9625 70.5506 76.7737 70.5506 74.0738C70.5506 71.3738 68.364 69.1851 65.6666 69.1851C62.9693 69.1851 60.7827 71.3738 60.7827 74.0738C60.7827 76.7737 62.9693 78.9625 65.6666 78.9625Z" stroke="white" stroke-width="3" stroke-linecap="round" stroke-linejoin="round"/>
<path d="M54.0006 89.3687C55.8924 89.3687 57.4259 87.8336 57.4259 85.94C57.4259 84.0463 55.8924 82.5112 54.0006 82.5112C52.1088 82.5112 50.5752 84.0463 50.5752 85.94C50.5752 87.8336 52.1088 89.3687 54.0006 89.3687Z" stroke="white" stroke-width="3" stroke-linecap="round" stroke-linejoin="round"/>
<path d="M74.7464 42.369C78.7665 42.369 82.0255 39.1068 82.0255 35.0827C82.0255 31.0586 78.7665 27.7964 74.7464 27.7964C70.7263 27.7964 67.4673 31.0586 67.4673 35.0827C67.4673 39.1068 70.7263 42.369 74.7464 42.369Z" stroke="white" stroke-width="3" stroke-linecap="round" stroke-linejoin="round"/>
</svg>
