<svg width="141" height="93" viewBox="0 0 141 93" fill="none" xmlns="http://www.w3.org/2000/svg">
<path d="M43.9783 3.62532C41.8863 6.06728 30.1525 20.9465 29.1044 22.0982C27.1698 24.2217 25.14 28.3737 30.1835 30.1395C33.3422 31.2457 35.5689 30.1809 37.7644 32.0852C39.96 33.9896 63.641 54.1642 66.4289 57.1045C69.2169 60.0447 83.7387 78.7554 87.556 81.8611C89.7433 83.6373 104.715 94.8049 117.774 88.6514C130.833 82.498 134.825 73.0672 136.919 68.3879C139.97 61.5645 139.33 49.729 130.218 42.2356C121.107 34.7422 87.8543 24.1328 79.9296 21.4965C72.7132 19.0959 60.4264 14.3195 56.5717 12.5144C51.8305 10.304 53.2866 9.17918 50.8487 4.7212C48.7505 0.852525 46.0413 1.21437 43.9783 3.62532Z" stroke="white" stroke-width="3" stroke-linecap="round" stroke-linejoin="round"/>
<path d="M50.7908 43.4617C48.2556 44.2784 46.6213 47.7749 46.4556 49.7475C46.2112 52.6878 47.8455 54.9871 49.8091 58.1569C51.3294 60.6112 54.9376 64.6474 59.4592 69.2088C63.6556 73.4434 65.8181 74.8826 69.2253 75.4967C72.2929 76.0487 73.9893 75.842 75.986 74.8888C77.0217 74.3946 78.0138 73.34 78.6021 72.7673" stroke="white" stroke-width="3" stroke-linecap="round" stroke-linejoin="round"/>
<path d="M55.4395 47.092C54.2174 47.4001 52.3056 48.953 52.579 50.6072C53.1383 53.961 57.8525 59.5521 60.1661 61.8576C62.7428 64.4257 66.6617 68.7575 69.2342 69.1835C71.1398 69.4978 71.494 69.473 73.1013 68.466C73.6604 68.1423 74.1576 67.7223 74.5698 67.2254" stroke="white" stroke-width="3" stroke-linecap="round" stroke-linejoin="round"/>
<path d="M69.9979 17.5552C70.6587 14.6067 72.1355 11.9538 73.8547 10.9655C76.4148 9.49534 80.3047 10.0495 82.9062 10.4196C85.7666 10.8331 90.9697 12.295 97.0282 14.4413C102.652 16.4325 104.876 17.7744 106.881 20.5927C108.685 23.1277 109.218 24.7487 109.205 26.9591C109.205 28.1087 108.445 30.0793 108.17 30.8526" stroke="white" stroke-width="3" stroke-linecap="round" stroke-linejoin="round"/>
<path d="M75.3216 19.8836C75.1145 18.643 75.9678 16.2258 77.6 15.8102C80.8996 14.9666 87.7162 17.0509 90.7631 18.2418C93.5199 19.3108 98.5428 21.5874 100.805 22.9707C101.34 23.3106 101.806 23.7492 102.178 24.263C102.484 24.6951 102.561 25.4891 102.503 25.882C102.25 27.6292 101.983 28.1047 101.728 28.6547" stroke="white" stroke-width="3" stroke-linecap="round" stroke-linejoin="round"/>
<path d="M40.3394 7.8658C37.4396 7.03872 32.3214 6.2654 29.7261 6.11239C27.1308 5.95938 24.0756 6.2654 21.5549 7.10282C20.3993 7.52604 19.2799 8.04189 18.2076 8.64532C13.9116 10.9558 10.2973 14.3501 7.72487 18.4896C7.47424 18.9032 7.24434 19.2981 7.04756 19.6806C5.67223 22.348 3.84121 27.8191 3.38346 30.1225C2.789 33.0938 1.8797 42.0862 1.85484 44.9107C1.82378 48.5168 1.70363 53.5227 1.70363 56.343C1.70363 59.1634 1.627 62.8997 1.55036 65.3375" stroke="white" stroke-width="2" stroke-linecap="round" stroke-linejoin="round"/>
<path d="M36.1797 12.7436C34.4025 12.1936 28.3813 11.7573 25.7529 12.1977C19.394 13.2667 15.9557 17.1602 15.1085 18.3181C13.0373 21.1178 11.7655 23.3261 10.3446 27.5649C9.14531 31.1586 8.36444 34.074 7.85905 37.157C7.41372 39.845 6.72605 47.5886 6.66599 50.5288C6.59763 53.7834 6.35115 59.0064 6.35115 61.5456C6.35115 64.0847 6.44022 73.7306 6.38222 75.9327" stroke="white" stroke-width="2" stroke-linecap="round" stroke-linejoin="round"/>
<path d="M32.46 17.8468C30.5171 17.3051 28.6861 17.4209 26.7287 17.8468C21.9917 18.8683 19.5061 22.617 18.8744 23.715C17.3375 26.3906 16.5753 27.8917 15.521 31.9403C14.6283 35.3727 13.8536 38.7637 13.4746 41.7102C13.1432 44.2762 12.6295 51.6766 12.586 54.4845C12.5363 57.586 12.3519 62.5754 12.3519 65.0091C12.3519 67.4428 12.4182 82.8493 12.3726 84.9542" stroke="white" stroke-width="2" stroke-linecap="round" stroke-linejoin="round"/>
<path d="M17.7085 91.0723C17.7354 89.0046 17.609 71.671 17.609 69.2869C17.609 66.9029 17.723 62.0231 17.754 58.9774C17.781 56.2273 18.0958 48.9759 18.2988 46.4636C18.5308 43.5688 18.827 40.2191 19.5519 36.8901C20.4405 32.8043 20.7346 31.6526 21.677 29.0328C22.0644 27.9576 23.9099 22.0026 28.6055 22.6602" stroke="white" stroke-width="2" stroke-linecap="round" stroke-linejoin="round"/>
</svg>
