<svg width="154" height="94" viewBox="0 0 154 94" fill="none" xmlns="http://www.w3.org/2000/svg">
<path d="M2 85.8243C2.57888 83.3093 6.63716 75.0923 7.02205 73.0611C7.40694 71.03 8.47232 65.1338 8.66322 61.8452C8.85413 58.5565 9.05119 54.7871 9.14665 51.1131C9.2421 47.4392 11.1758 38.4486 11.9486 35.6438C12.7215 32.8391 13.6884 29.1713 15.3357 25.5898C16.983 22.0084 19.7727 15.2431 20.835 12.9253C21.8973 10.6075 23.249 7.02605 24.6993 5.09354C26.1496 3.16104 26.9994 2.40899 28.0863 2.38433C29.2533 2.35968 29.9338 2.77268 30.4018 4.0302C30.9897 5.39914 31.2924 6.87367 31.2917 8.36371C31.2917 10.025 31.5565 11.4736 30.4942 14.3739C29.6877 16.5727 28.6176 18.6653 27.3073 20.606C26.4359 21.9159 25.5553 24.0364 25.0565 24.7577" stroke="white" stroke-width="3" stroke-linecap="round" stroke-linejoin="round"/>
<path d="M16.9033 33.9765C17.8271 31.8899 19.0002 29.4088 20.4474 28.0865C21.8946 26.7643 22.0085 26.6225 24.1793 25.3126C26.3501 24.0026 30.6824 21.4444 31.2921 20.9112C32.379 19.9527 33.8939 18.3561 33.8939 18.3561C33.8939 18.3561 39.0884 12.8082 40.7296 11.6555C42.1635 10.7214 43.6908 9.93948 45.2867 9.32227" stroke="white" stroke-width="3" stroke-linecap="round" stroke-linejoin="round"/>
<path d="M34.4048 17.7887C34.9005 15.2028 35.6795 12.0528 36.5109 10.5087C36.8866 9.80593 38.0874 7.50974 39.5038 6.3262C40.9202 5.14265 41.9025 4.19644 43.9347 3.55227C45.9669 2.9081 47.2293 2.68311 48.4117 2.68311C49.5941 2.68311 50.7796 3.07762 51.3307 3.55227C51.9336 4.02539 52.3914 4.65876 52.6517 5.37998C52.9596 6.30462 52.938 6.56352 52.6517 7.66693C52.4792 8.33883 52.236 9.33437 51.9127 10.3669C51.7075 11.0324 51.4649 11.6859 51.186 12.324C50.4747 13.9021 50.0652 14.6726 49.0553 17.0212C48.3686 18.6178 43.947 30.4717 43.947 30.4717" stroke="white" stroke-width="3" stroke-linecap="round" stroke-linejoin="round"/>
<path d="M52.0546 10.2131C52.9629 10.5214 54.2253 10.7494 55.106 11.2981C55.7433 11.6926 56.5347 12.007 57.0058 12.796C57.4769 13.585 57.5231 13.8223 57.6586 15.0059C57.742 16.3392 57.6311 17.6775 57.3291 18.9788C57.2398 19.361 55.1275 26.1202 54.8658 27.1157C54.4286 28.6968 53.2893 32.2752 53.0183 33.1475C52.7474 34.0197 51.9376 36.5718 51.7251 37.0834" stroke="white" stroke-width="3" stroke-linecap="round" stroke-linejoin="round"/>
<path d="M56.7095 21.0312C56.8727 21.5645 57.7564 24.8962 57.9411 25.4911C58.2491 26.4157 59.1728 29.0571 59.2375 29.5996C59.453 31.2609 58.5816 35.8841 58.2583 37.0861C57.935 38.2881 57.2668 40.2052 56.9989 41.4227C56.731 42.6401 56.0752 45.8979 56.0752 45.8979" stroke="white" stroke-width="3" stroke-linecap="round" stroke-linejoin="round"/>
<path d="M57.2211 40.5876C64.7311 39.737 66.3353 39.1575 67.3607 38.5473C69.242 37.4284 70.9417 36.4699 72.1303 34.4079C73.3188 32.346 75.6312 26.7549 76.0531 25.7224C76.4749 24.6899 77.4048 21.9622 78.0945 21.1732C78.9905 20.1499 79.6957 19.7153 80.5578 19.441C80.8596 19.3418 81.1683 19.2656 81.4816 19.2129C81.9754 19.1397 82.4798 19.2183 82.9279 19.4385C83.3761 19.6587 83.7468 20.0099 83.991 20.4458V20.4643C84.3407 21.1214 84.5721 21.835 84.6746 22.5725C84.7454 23.3461 84.8532 25.7286 84.4498 27.1125C84.0372 28.5426 81.9465 33.4001 81.5493 34.2014C81.1521 35.0028 80.2807 37.7952 79.8681 38.6613C79.293 39.7205 78.5669 40.6902 77.7127 41.54C77.0014 42.2273 73.3619 44.8194 72.0102 45.4944C70.6584 46.1694 67.2498 48.5612 65.972 49.757C64.6942 50.9529 58.151 56.846 57.449 57.5426C56.747 58.2391 53.0828 61.7158 51.574 62.7267C50.0653 63.7377 43.8947 68.3609 42.7431 69.1838C41.5915 70.0068 38.4631 73.3848 37.5579 74.6208C36.6526 75.8567 34.5126 78.8217 34.02 79.8111C33.5273 80.8005 31.646 84.6717 31.3103 86.3175C30.9747 87.9634 30.6206 89.7634 30.6206 89.7634" stroke="white" stroke-width="3" stroke-linecap="round" stroke-linejoin="round"/>
<path d="M72.1303 34.4079C72.1303 34.4079 71.419 32.6912 71.2065 32.1118C70.9941 31.5323 70.5537 30.1207 70.3013 29.3132C70.0488 28.5057 69.9595 27.9386 69.7409 27.1156C69.5387 26.4174 69.4056 25.7009 69.3437 24.9766C69.239 24.0951 69.0542 22.6065 69.0173 22.0548C68.8941 20.1808 69.1127 18.8833 69.7439 18.461C70.7139 17.8076 72.121 18.1898 72.8569 19.1514C73.3989 19.8603 73.8515 20.6925 74.2302 21.2226C74.609 21.7527 75.1047 22.3691 75.4619 22.8592C75.9022 23.4756 76.4472 24.2739 76.4472 24.2739" stroke="white" stroke-width="3" stroke-linecap="round" stroke-linejoin="round"/>
<path d="M82.0786 33.0244C83.7198 34.5655 86.8266 39.127 87.5564 40.141C89.4223 42.73 91.316 45.47 93.7485 46.6566C94.5737 47.0604 94.3643 47.0018 94.3643 47.0018" stroke="white" stroke-width="3" stroke-linecap="round" stroke-linejoin="round"/>
<path d="M90.66 44.1722C90.66 44.1722 90.3521 40.7818 90.2505 39.8171C90.1488 38.8524 89.9025 37.2188 89.727 36.0815C89.5515 34.9442 89.4191 34.2014 89.2898 33.1011C89.2343 32.5617 89.1666 31.5415 89.5053 30.8665C89.7178 30.4381 90.506 29.9635 90.817 29.8525C91.128 29.7416 92.2088 29.5166 92.8092 29.4025C93.4097 29.2885 95.3095 29.045 95.8699 29.045C96.7928 28.9892 97.7182 28.9892 98.6411 29.045C99.458 29.1816 100.263 29.3815 101.049 29.6429C102.175 30.0892 103.274 30.6038 104.337 31.184C104.842 31.4922 107.512 33.8408 107.848 34.3247C108.183 34.8086 110.003 37.7459 110.222 38.2144C110.44 38.6829 111.235 40.6801 111.598 41.4814C111.961 42.2828 112.352 43.6698 112.768 44.6283C113.184 45.5869 113.91 47.094 114.261 47.8368C114.613 48.5796 115.207 49.5012 115.305 50.2625C115.404 51.0238 115.176 52.2566 114.477 52.7004C113.729 53.1782 111.398 52.796 110.44 51.7758C108.528 49.7477 107.161 47.0046 106.764 46.4745C106.367 45.9444 105.341 44.1876 104.876 43.6266C104.411 43.0657 103.645 42.067 103.057 41.4691C102.478 40.862 101.842 40.3128 101.157 39.8294C100.556 39.4894 99.9145 39.2274 99.2477 39.0496C98.3239 38.7414 97.0646 38.4517 96.535 37.9216C96.0053 37.3914 95.4757 36.8274 95.4419 36.6301" stroke="white" stroke-width="3" stroke-linecap="round" stroke-linejoin="round"/>
<path d="M95.0481 28.9836C94.9373 26.8261 94.9249 24.8906 95.6331 23.9906C96.1354 23.3311 96.7633 22.778 97.4806 22.3632C98.0797 21.9718 98.7393 21.6822 99.4328 21.5064C100.357 21.1982 103.011 20.8899 103.827 21.0656C105.058 21.3091 106.696 21.8023 107.408 22.4002C108.619 23.4408 109.767 24.5523 110.847 25.7289C111.772 26.7486 112.619 27.8366 113.381 28.9836C114.173 30.1394 115.266 32.7346 115.712 33.6284C116.159 34.5222 117.153 37.5551 117.452 38.3996C117.751 39.2441 118.791 41.7283 119.139 42.77C119.487 43.8118 119.906 44.5823 119.884 45.3868C119.863 46.2559 119.435 47.6552 117.797 47.5227C116.159 47.3902 114.97 46.9771 114.074 46.2498C113.528 45.7989 113.084 45.2381 112.768 44.6039" stroke="white" stroke-width="3" stroke-linecap="round" stroke-linejoin="round"/>
<path d="M102.7 20.979C102.7 20.979 102.65 19.4718 102.74 18.3314C102.829 17.191 102.829 16.2232 102.98 15.4064C103.131 14.5896 103.288 13.6033 103.596 13.2088C103.904 12.8143 104.445 11.939 105.194 11.6092C106.09 11.2178 107.531 11.3934 108.291 11.7386C109.48 12.2477 110.62 12.8669 111.694 13.5879C112.205 13.9794 114.97 15.9119 115.336 16.1985C115.703 16.4852 119.878 20.005 120.608 20.8218C121.177 21.4659 122.277 23.87 122.578 24.5358C122.88 25.2015 124.9 30.7648 125.22 31.4799C125.694 32.7574 126.04 34.079 126.252 35.4251C126.329 36.1001 126.603 38.0202 125.768 38.6983C124.725 39.5428 121.679 39.8819 116.531 35.7733" stroke="white" stroke-width="3" stroke-linecap="round" stroke-linejoin="round"/>
<path d="M76.2163 42.7297C77.1585 44.2246 86.3189 55.8535 87.3689 56.9785C88.4189 58.1034 96.5231 70.7001 98.9803 72.4292C100.301 73.3539 100.554 73.4802 102.315 74.2292C104.076 74.9782 107.328 76.3682 109.382 77.1511C111.635 78.011 112.445 77.9709 114.942 79.1791C116.83 80.1037 119.213 82.7051 120.26 84.505C121.307 86.305 125.356 92.3799 125.356 92.3799" stroke="white" stroke-width="3" stroke-linecap="round" stroke-linejoin="round"/>
<path d="M123.65 58.9419C125.245 59.6169 129.115 61.7867 130.212 62.6127C132.179 64.0952 134.445 67.2945 135.113 68.4503C136.037 70.0438 136.521 72.6852 137.075 73.7886C137.376 74.4046 137.726 74.9953 138.122 75.5547" stroke="white" stroke-width="3" stroke-linecap="round" stroke-linejoin="round"/>
<path d="M127.089 46.4403C127.185 44.9948 126.88 40.0017 126.88 38.9784C126.88 37.9551 126.391 29.7135 126.264 28.9799C126.138 28.2464 125.895 26.28 125.605 25.2814C125.316 24.2827 124.26 20.4671 124.084 19.4253C123.829 17.8842 123.644 16.7068 123.604 16.2168C123.525 15.1905 123.535 14.1593 123.632 13.1346C123.678 12.4411 124.444 10.2713 125.11 9.43605C125.804 8.48811 126.619 7.63441 127.533 6.89636C128.515 6.09808 129.229 5.77446 129.836 5.6635C130.182 5.59182 130.538 5.59232 130.884 5.66498C131.229 5.73763 131.556 5.88088 131.844 6.08576C132.621 6.68172 133.22 7.47893 133.577 8.3912C133.941 9.50077 134.211 12.6661 134.193 14.1671C134.193 15.3168 133.666 19.2835 134.193 20.803C134.72 22.3225 137.05 28.6008 137.58 29.5902C138.11 30.5796 141.247 37.3634 141.74 38.5962C142.233 39.8291 144.711 47.18 145.127 48.607C145.543 50.0341 146.137 53.8467 146.322 54.8176C146.506 55.7884 146.919 61.626 147.011 62.8681C147.104 64.1102 146.996 71.7663 147.449 73.6217C147.972 75.7792 148.394 78.0415 149.17 80.0295C150 81.7962 150.925 83.5165 151.941 85.1829" stroke="white" stroke-width="3" stroke-linecap="round" stroke-linejoin="round"/>
</svg>
