<svg width="445" height="152" viewBox="0 0 445 152" fill="none" xmlns="http://www.w3.org/2000/svg">
<path d="M121.782 102.429L81.2991 62.2105L2 149.538H442.716L355.615 61.7363L309.377 111.298" stroke="white" stroke-width="3" stroke-linecap="round" stroke-linejoin="round"/>
<path d="M37.2959 149.538L81.2996 62.2107" stroke="white" stroke-width="3" stroke-linecap="round" stroke-linejoin="round"/>
<path d="M83.9604 149.537L210.053 2L321.325 126.208L355.615 61.7362" stroke="white" stroke-width="3" stroke-linecap="round" stroke-linejoin="round"/>
<path d="M129.531 149.537L210.053 2" stroke="white" stroke-width="3" stroke-linecap="round" stroke-linejoin="round"/>
<path d="M43.3071 137.595H58.2265" stroke="white" stroke-width="3" stroke-linecap="round" stroke-linejoin="round"/>
<path d="M63.6074 130.201H78.8894" stroke="white" stroke-width="3" stroke-linecap="round" stroke-linejoin="round"/>
<path d="M53.6592 117.052H68.2978" stroke="white" stroke-width="3" stroke-linecap="round" stroke-linejoin="round"/>
<path d="M74.4683 75.7688H84.9662" stroke="white" stroke-width="3" stroke-linecap="round" stroke-linejoin="round"/>
<path d="M114.313 95.2632H99.0312" stroke="white" stroke-width="3" stroke-linecap="round" stroke-linejoin="round"/>
<path d="M103.722 84.3159H90.3525" stroke="white" stroke-width="3" stroke-linecap="round" stroke-linejoin="round"/>
<path d="M104.418 123.533H89.4814" stroke="white" stroke-width="3" stroke-linecap="round" stroke-linejoin="round"/>
<path d="M78.8896 141.5H90.3526" stroke="white" stroke-width="3" stroke-linecap="round" stroke-linejoin="round"/>
<path d="M179.325 58.3113H198.444" stroke="white" stroke-width="3" stroke-linecap="round" stroke-linejoin="round"/>
<path d="M184.823 84.8601H208.597" stroke="white" stroke-width="3" stroke-linecap="round" stroke-linejoin="round"/>
<path d="M141.287 128H161.546" stroke="white" stroke-width="3" stroke-linecap="round" stroke-linejoin="round"/>
<path d="M294.382 96.1355H259.607" stroke="white" stroke-width="3" stroke-linecap="round" stroke-linejoin="round"/>
<path d="M202.011 123.533H242.395" stroke="white" stroke-width="3" stroke-linecap="round" stroke-linejoin="round"/>
<path d="M244.757 40.7432H223.369" stroke="white" stroke-width="3" stroke-linecap="round" stroke-linejoin="round"/>
<path d="M328.542 112.633H350.321" stroke="white" stroke-width="3" stroke-linecap="round" stroke-linejoin="round"/>
<path d="M345.965 79.8784H355.615" stroke="white" stroke-width="3" stroke-linecap="round" stroke-linejoin="round"/>
<path d="M411.661 118.235L382.132 118.679" stroke="white" stroke-width="3" stroke-linecap="round" stroke-linejoin="round"/>
<path d="M358.901 102.429H373.908" stroke="white" stroke-width="3" stroke-linecap="round" stroke-linejoin="round"/>
<path d="M248.132 70.6877H271.584" stroke="white" stroke-width="3" stroke-linecap="round" stroke-linejoin="round"/>
<path d="M154.124 104.483H198.444" stroke="white" stroke-width="3" stroke-linecap="round" stroke-linejoin="round"/>
<path d="M202.011 16.7349H214.685" stroke="white" stroke-width="3" stroke-linecap="round" stroke-linejoin="round"/>
</svg>
