<svg width="98" height="121" viewBox="0 0 98 121" fill="none" xmlns="http://www.w3.org/2000/svg">
<path d="M83.5856 57.306L83.521 56.4128C82.4772 42.7951 76.1515 34.2578 70.57 26.7275C65.4017 19.7547 60.9855 13.734 60.9385 4.85117C60.9385 3.47703 61.2166 2.32276 60.8739 1.92622C60.4058 1.38638 58.512 2.88419 57.9362 3.30036C49.5542 9.31123 39.2784 17.6483 36.8363 27.3164C35.1324 34.0791 33.7028 40.2726 35.7513 47.8951C25.6184 42.7362 23.1783 40.512 22.1756 39.9565C18.0805 37.6872 16.692 39.4088 15.5894 53.1227C15.5169 54.0296 15.3936 59.3711 15.3936 60.0189C15.3936 78.9016 30.7201 94.2644 49.5581 94.2644C68.3961 94.2644 83.7149 78.9035 83.7149 60.013C83.7149 59.0727 83.6503 58.1894 83.5856 57.306Z" stroke="white" stroke-width="3" stroke-miterlimit="10"/>
<path d="M62.4722 81.4611L62.4487 81.1549C62.0923 76.5024 59.9282 73.5775 58.0188 71.0059C56.2562 68.6208 54.7404 66.5615 54.7247 63.5207C54.7247 63.0535 54.8207 62.657 54.7032 62.5215C54.5426 62.337 53.8963 62.8494 53.6985 62.9927C50.8314 65.048 47.9545 68.2478 47.1202 71.5536C46.5327 73.868 46.7442 76.9049 46.7285 78.6206C43.4344 77.0717 43.881 77.2837 42.8724 76.6104C42.3824 76.2765 41.9134 75.9127 41.4682 75.5209C40.8023 74.9712 40.0327 74.7023 39.2258 80.8212C39.1984 81.041 39.1455 82.1619 39.1455 82.3916C39.1455 85.4982 40.3767 88.4776 42.5682 90.6744C44.7598 92.8711 47.7321 94.1052 50.8314 94.1052C53.9307 94.1052 56.903 92.8711 59.0945 90.6744C61.2861 88.4776 62.5173 85.4982 62.5173 82.3916C62.5153 82.0657 62.4938 81.7634 62.4722 81.4611Z" stroke="white" stroke-width="3" stroke-miterlimit="10"/>
<path d="M6.98117 95.6981C8.72324 95.1878 9.50265 92.6035 8.72203 89.926C7.94141 87.2484 5.89636 85.4915 4.1543 86.0018C2.41223 86.5121 1.63282 89.0964 2.41344 91.7739C3.19406 94.4515 5.2391 96.2084 6.98117 95.6981Z" stroke="white" stroke-width="3" stroke-miterlimit="10"/>
<path d="M22.4297 81.0393L4.34961 85.9362" stroke="white" stroke-width="3" stroke-miterlimit="10"/>
<path d="M30.9256 88.8582L6.97412 95.7014" stroke="white" stroke-width="3" stroke-miterlimit="10"/>
<path d="M28.4808 114.073C28.9856 111.833 26.5673 109.377 23.0795 108.587C19.5916 107.797 16.3549 108.973 15.8501 111.212C15.3453 113.452 17.7635 115.908 21.2514 116.698C24.7393 117.488 27.976 116.313 28.4808 114.073Z" stroke="white" stroke-width="3" stroke-miterlimit="10"/>
<path d="M16.3823 110.142L31.4034 88.811" stroke="white" stroke-width="3" stroke-miterlimit="10"/>
<path d="M28.2939 114.637L41.4134 93.3865" stroke="white" stroke-width="3" stroke-miterlimit="10"/>
<path d="M50.7512 118.582C54.5951 118.238 57.5396 116.033 57.328 113.656C57.1164 111.279 53.8288 109.631 49.9849 109.975C46.141 110.319 43.1965 112.524 43.4081 114.901C43.6197 117.278 46.9073 118.926 50.7512 118.582Z" stroke="white" stroke-width="3" stroke-miterlimit="10"/>
<path d="M43.4146 114.898L43.8591 94.0664" stroke="white" stroke-width="3" stroke-miterlimit="10"/>
<path d="M57.3352 113.653L55.2593 93.6851" stroke="white" stroke-width="3" stroke-miterlimit="10"/>
<path d="M83.5118 110.138C87.1434 108.902 89.4837 106.118 88.739 103.92C87.9942 101.722 84.4465 100.943 80.8149 102.179C77.1833 103.415 74.843 106.199 75.5877 108.397C76.3325 110.595 79.8802 111.375 83.5118 110.138Z" stroke="white" stroke-width="3" stroke-miterlimit="10"/>
<path d="M58.1104 93.2102L76.1023 109.294" stroke="white" stroke-width="3" stroke-miterlimit="10"/>
<path d="M87.4084 102.288L68.5605 88.5442" stroke="white" stroke-width="3" stroke-miterlimit="10"/>
<path d="M92.6844 84.7886C94.4529 84.7886 95.8864 82.5843 95.8864 79.8652C95.8864 77.1462 94.4529 74.9419 92.6844 74.9419C90.916 74.9419 89.4824 77.1462 89.4824 79.8652C89.4824 82.5843 90.916 84.7886 92.6844 84.7886Z" stroke="white" stroke-width="3" stroke-miterlimit="10"/>
<path d="M92.6849 84.7886L70.6978 87.0537" stroke="white" stroke-width="3" stroke-miterlimit="10"/>
<path d="M92.6846 74.9419L79.6611 76.4265" stroke="white" stroke-width="3" stroke-miterlimit="10"/>
</svg>
