<svg width="187" height="143" viewBox="0 0 187 143" fill="none" xmlns="http://www.w3.org/2000/svg">
<path d="M16.2449 110.486C17.6276 110.272 18.5761 108.978 18.3636 107.596C18.151 106.213 16.8578 105.265 15.4752 105.478C14.0925 105.692 13.144 106.986 13.3566 108.368C13.5691 109.751 14.8623 110.699 16.2449 110.486Z" fill="white" stroke="white" stroke-width="3" stroke-miterlimit="10"/>
<path d="M16.2529 107.968L29.4608 125.294" stroke="white" stroke-width="3" stroke-miterlimit="10"/>
<path d="M32.3471 130.974C34.2372 130.682 35.5339 128.913 35.2433 127.023C34.9527 125.133 33.185 123.837 31.2949 124.129C29.4048 124.421 28.1081 126.19 28.3987 128.08C28.6893 129.97 30.457 131.266 32.3471 130.974Z" stroke="white" stroke-width="3" stroke-miterlimit="10"/>
<path d="M35.24 127.026L80.2945 97.9071" stroke="white" stroke-width="3" stroke-miterlimit="10"/>
<path d="M85.7457 100.201C88.5025 99.7756 90.3936 97.1946 89.9696 94.4363C89.5455 91.678 86.967 89.787 84.2103 90.2126C81.4535 90.6381 79.5625 93.2192 79.9865 95.9775C80.4105 98.7358 82.989 100.627 85.7457 100.201Z" stroke="white" stroke-width="3" stroke-miterlimit="10"/>
<path d="M88.7851 91.9372L121.513 48.4096" stroke="white" stroke-width="3" stroke-miterlimit="10"/>
<path d="M126.437 49.4624C129.596 48.9747 131.763 46.0169 131.277 42.8561C130.791 39.6952 127.836 37.5282 124.677 38.0159C121.518 38.5036 119.351 41.4613 119.837 44.6222C120.323 47.783 123.278 49.9501 126.437 49.4624Z" stroke="white" stroke-width="3" stroke-miterlimit="10"/>
<path d="M122.911 12.5053C124.294 12.2918 125.243 10.9978 125.03 9.61505C124.817 8.23227 123.524 7.28434 122.142 7.49779C120.759 7.71124 119.81 9.00524 120.023 10.388C120.236 11.7708 121.529 12.7187 122.911 12.5053Z" fill="white" stroke="white" stroke-width="3" stroke-miterlimit="10"/>
<path d="M122.751 12.193L123.114 38.6864" stroke="white" stroke-width="3" stroke-miterlimit="10"/>
<path d="M153.599 17.3611C156.058 16.9815 157.745 14.6795 157.367 12.2193C156.988 9.75916 154.689 8.07253 152.23 8.45211C149.771 8.83169 148.084 11.1337 148.463 13.5939C148.841 16.054 151.141 17.7407 153.599 17.3611Z" stroke="white" stroke-width="3" stroke-miterlimit="10"/>
<path d="M124.763 9.48242L149.459 9.82574" stroke="white" stroke-width="3" stroke-miterlimit="10"/>
<path d="M129.351 39.6289L149.322 15.8857" stroke="white" stroke-width="3" stroke-miterlimit="10"/>
<path d="M173.142 48.6281C174.707 48.3864 175.781 46.9215 175.541 45.3561C175.3 43.7907 173.836 42.7176 172.271 42.9592C170.705 43.2008 169.632 44.6657 169.872 46.2312C170.113 47.7966 171.577 48.8697 173.142 48.6281Z" stroke="white" stroke-width="3" stroke-miterlimit="10"/>
<path d="M155.736 16.0874L172.271 42.9556" stroke="white" stroke-width="3" stroke-miterlimit="10"/>
<path d="M172.525 85.026C174.865 84.6647 176.471 82.4738 176.111 80.1324C175.751 77.791 173.562 76.1858 171.222 76.5471C168.882 76.9083 167.277 79.0993 167.637 81.4406C167.996 83.782 170.185 85.3873 172.525 85.026Z" stroke="white" stroke-width="3" stroke-miterlimit="10"/>
<path d="M173.148 48.6325L172.151 76.4426" stroke="white" stroke-width="3" stroke-miterlimit="10"/>
<path d="M129.525 47.4912L167.546 80.2695" stroke="white" stroke-width="3" stroke-miterlimit="10"/>
<path d="M136.081 124.351C137.646 124.11 138.72 122.645 138.479 121.079C138.238 119.514 136.774 118.441 135.209 118.683C133.644 118.924 132.57 120.389 132.811 121.955C133.051 123.52 134.515 124.593 136.081 124.351Z" stroke="white" stroke-width="3" stroke-miterlimit="10"/>
<path d="M88.6997 98.5354L133.074 119.915" stroke="white" stroke-width="3" stroke-miterlimit="10"/>
<path d="M137.812 119.602L169.366 84.308" stroke="white" stroke-width="3" stroke-miterlimit="10"/>
</svg>
