<svg xmlns="http://www.w3.org/2000/svg" viewBox="0 0 63.6 137.57"><defs><style>.cls-1{fill:#fff;}</style></defs><title>new_rayo</title><g id="Layer_2" data-name="Layer 2"><g id="Layer_1-2" data-name="Layer 1"><path class="cls-1" d="M23.8,3c4.24,0,34.86.61,34.86.61L42.9,33.3l13.94,2.12L39,73.3l10.3-.3L17.43,123l7.79-42.47-13.55-.86L25.31,51.18l-21-2.5L23.8,3M49.26,73h0M23.8,0h-2L21,1.82,1.57,47.51,0,51.19l4,.47,16.83,2L9,78.37l-1.92,4,4.43.28,10.18.65-7.18,39.15-2.77,15.11,8.25-13,31.83-50,3-4.78L49.18,70l-5.42.16L59.55,36.71l1.72-3.65-4-.6L47.53,31,61.31,5,63.6.7,58.72.61C57.47.58,28,0,23.8,0ZM49.27,70Z"/></g></g></svg>