<svg width="28" height="20" viewBox="0 0 28 20" fill="none" xmlns="http://www.w3.org/2000/svg">
<path d="M25.5391 0H2.46094C1.10124 0 0 1.10918 0 2.46338V17.2437C0 18.6059 1.10934 19.707 2.46094 19.707H25.5391C26.8874 19.707 28 18.6106 28 17.2437V2.46338C28 1.11159 26.9031 0 25.5391 0ZM25.1944 1.64225C24.6916 2.14287 16.0389 10.7586 15.7402 11.056C15.2753 11.5213 14.6573 11.7775 14 11.7775C13.3427 11.7775 12.7247 11.5213 12.2583 11.0545C12.0574 10.8544 3.50016 2.33386 2.80558 1.64225H25.1944ZM1.64062 16.9094V2.79867L8.7302 9.85789L1.64062 16.9094ZM2.80662 18.0648L9.89341 11.0161L11.0998 12.2173C11.8745 12.9927 12.9044 13.4198 14 13.4198C15.0956 13.4198 16.1255 12.9927 16.8987 12.2188L18.1066 11.0161L25.1934 18.0648H2.80662ZM26.3594 16.9094L19.2698 9.85789L26.3594 2.79867V16.9094Z" fill="white"/>
</svg>
