<svg width="22" height="23" viewBox="0 0 22 23" fill="none" xmlns="http://www.w3.org/2000/svg">
<path d="M16.0482 13.1292L16.04 13.1981C14.0242 12.1924 13.8134 12.0584 13.5531 12.4493C13.3725 12.72 12.8463 13.3339 12.6877 13.5156C12.5273 13.6945 12.3678 13.7083 12.0956 13.5844C11.8206 13.4467 10.9378 13.1577 9.89281 12.2217C9.0788 11.4922 8.53247 10.5976 8.37114 10.3223C8.10255 9.858 8.66447 9.79193 9.17597 8.82295C9.26764 8.63025 9.22089 8.47885 9.15305 8.34213C9.0843 8.20449 8.53705 6.85562 8.30789 6.3179C8.08788 5.78202 7.86147 5.84993 7.69188 5.84993C7.16388 5.80405 6.77796 5.81139 6.43788 6.16558C4.95837 7.7934 5.33146 9.47261 6.59738 11.2583C9.08522 14.5176 10.4107 15.1177 12.8344 15.9509C13.4889 16.1592 14.0857 16.1298 14.5577 16.0619C15.0839 15.9784 16.1775 15.4003 16.4057 14.7534C16.6395 14.1065 16.6395 13.5697 16.5707 13.4458C16.5029 13.3219 16.3232 13.2531 16.0482 13.1292Z" fill="white"/>
<path d="M18.81 3.16508C11.7618 -3.65518 0.0971667 1.29141 0.0925833 10.913C0.0925833 12.8362 0.595833 14.7117 1.55467 16.3679L0 22.022L5.80708 20.5062C13.0533 24.4242 21.9963 19.2216 22 10.9185C22 8.00432 20.8633 5.26172 18.7962 3.20087L18.81 3.16508ZM20.1685 10.8882C20.163 17.892 12.4823 22.266 6.4075 18.6912L6.0775 18.4949L2.64 19.3895L3.56125 16.045L3.34217 15.7009C-0.438167 9.67704 3.905 1.80433 11.066 1.80433C13.4988 1.80433 15.7823 2.75401 17.5019 4.47445C19.2207 6.1802 20.1685 8.46586 20.1685 10.8882Z" fill="white"/>
</svg>
